<svg version="1.0" xmlns="http://www.w3.org/2000/svg" width="1608" height="1608" viewBox="0 0 1206 1206"><path d="M554 27.5c-13 2.6-30.5 8.3-34.8 11.3-1.5 1.1-6.4 2.7-11 3.6-10.2 2-30.9 9.4-42.2 15.1-9 4.6-29.7 17.5-36.2 22.7-2.2 1.7-10.6 10.4-18.7 19.3-13.3 14.5-15.3 17.3-21.3 28.6-3.6 6.8-7.8 15.3-9.3 18.9-1.5 3.6-5.6 12.6-9 20-3.4 7.4-6.7 14.8-7.3 16.5-2.4 6.5-5.3 19.6-7.2 32.5-3.1 20.9-5.9 33-8.1 35.4-.5.6-.9 2.7-.9 4.7s-.9 7.9-2 13.2c-1 5.2-2.4 15.5-3 22.8-1.3 16.1-4.4 40.3-6.7 51.7-1.5 7.9-1.8 8.5-5 10-3.8 1.8-7.8 8.2-6.8 11.1.3.9-1 5.5-2.9 10.2-1.9 4.7-4.4 12.2-5.6 16.7-2.8 11.2-4.8 15.2-7.6 15.2-2.9 0-14.9 9.4-16.2 12.8-.6 1.5-1.3 8.6-1.7 15.8-.3 7.3-1.2 17.3-2.1 22.4-1.1 7.2-1.2 11-.5 16.9.6 4.2 1.6 13.4 2.2 20.5 1.7 20.1 4.1 24.2 26.9 46.6 15.3 15 15.9 15.7 16.6 20.5.9 6.1-.3 10.8-5.8 23.4-5.1 11.6-10.4 19.4-16.6 24.4-9.3 7.5-22.3 14.3-36.7 19.1-25.6 8.5-29.4 9.1-52.5 7.7-17-1-22.2-2.2-35-8-2.5-1.1-5.5-2.1-6.7-2.1-1.1 0-6.7-2.3-12.2-5.1-14.4-7.1-19.5-12.6-27.6-29.4C134.8 580.6 129 567 126 558c-.6-1.9-1.4-8.2-1.7-13.9-.5-8.3-1-10.8-2.5-12.3-1-1-2.5-1.8-3.3-1.8-4.1 0-17.6 17.4-21.1 27.3-2.7 7.7-7.7 27.1-9 35.2-1.6 9.7-1.8 29.2-.4 36.6 1.7 9 11.1 32.9 15.5 39.4 2.3 3.3 4.4 6.7 4.7 7.7 1.6 4 11.1 18.1 18.4 27.3 8.3 10.3 21.3 23.2 31 30.7l5.5 4.3-2.8.7c-1.5.3-6.2 1.1-10.4 1.7-22 3-56.9 14-66.1 20.9-13.1 9.6-23.4 18-30.8 25-9.4 8.8-20.9 24.7-23.8 32.8-.9 2.7-2.7 6.5-3.8 8.4-1.2 1.9-3.4 6.6-4.9 10.5-1.4 3.8-3.7 9.7-5 13-1.3 3.3-3.9 12.8-5.9 21.1-3.3 14-3.5 15.4-2.2 18.5 1.5 3.7 3.9 6.2 6.9 7.2 3.5 1.3 10.7-4.3 14-10.9 2.5-4.8 18-21.8 25.5-27.7 11.7-9.4 33.4-19.7 41.4-19.7 1.5 0 6.8-.8 11.6-1.9 4.8-1 13-2.3 18.2-2.9 29.2-3.5 26-3.5 44.5-.3 3.9.7 11.1 2.1 16 3.2 5 1 12.8 2.4 17.5 3 4.7.5 12.1 1.9 16.5 2.9 15.5 3.7 26.1 5.9 34 7 4.4.7 8.5 1.5 9.2 1.9.8.4-1.1 3.2-5.6 8.2-3.8 4.1-10.5 12.9-15 19.4-4.5 6.6-10.2 14.9-12.7 18.5-6.8 9.8-17.8 32.9-22.4 47-6.4 19.5-11 35.7-11.6 40.8-.4 2.6-1.4 8.1-2.5 12.2-5.1 20.9-7.1 41-5.9 59.4 2.8 41.9 8 71.7 17.2 99 3.6 10.7 4.3 11.9 8 14 5.4 3.2 8 1 10.9-9.5 1.6-5.7 2.2-12.2 2.8-27.9.8-19.8 1-21.2 5.4-39 9.7-38.9 20.3-57.6 50.3-89.5 19.7-20.8 40.1-39.5 49.8-45.5 4-2.5 9.5-6.1 12.2-8.1 6.4-4.7 16.4-10 23.9-12.8 3.3-1.2 9.5-4 13.8-6.2 4.3-2.2 10-4.4 12.7-4.9 2.7-.5 8.8-3.2 13.7-5.9 4.8-2.7 14.4-7.1 21.3-9.7 13.9-5.2 21.9-9.1 39.5-19.4 6.6-3.8 12.5-7 13.1-7 .6 0 3.6-1.1 6.5-2.4 5.3-2.4 11.9-7.2 29.2-21.4 10.2-8.5 9.7-8.6 14.2 3 1.5 3.7 4 8.6 5.8 11 1.7 2.4 5.2 8.7 7.8 14 2.5 5.4 6.4 12.8 8.6 16.5 2.2 3.7 5.2 9.1 6.7 12 3.9 7.9 11.2 34.4 13.5 49.3 7.2 46.4 7.8 54.3 5.8 79-1 11.3-1.7 24.4-1.7 29.2 0 11.4-2 21.1-6.9 33.7-2.3 5.8-4.1 10.9-4.1 11.4s-2.5 7.2-5.5 14.9c-5.6 14.2-6 16.9-2.6 18.8 2.3 1.2 11.1-4.8 23.6-16.3 18.9-17.2 29.2-31.5 49.4-68.1 8.6-15.6 13.9-27 22.8-48.7 6.3-15.6 12.5-32 13.8-36.4 5.7-19.2 13.6-74.3 13.8-96.1l.2-15 8.5 5.6c4.7 3.1 10.1 6.5 12 7.6 1.9 1 4.4 2.7 5.5 3.6 2.3 2 7.3 4.8 19.5 11.1 4.7 2.5 12.2 6.7 16.8 9.5 4.6 2.8 9.7 5.4 11.5 5.7 1.8.4 5.2 2 7.7 3.6 2.5 1.5 7.5 3.9 11 5.3 3.6 1.4 10.8 4.3 16 6.6 5.2 2.2 14.9 5.9 21.4 8.1 10 3.4 24.9 10.1 38.1 17.2 4.9 2.7 19.7 9.3 24.7 11.1 2.6 1 7.8 4 11.5 6.8 3.7 2.7 9 6.1 11.6 7.5 7.7 3.9 13.9 8.7 20.4 16 3.4 3.7 9.7 10.5 14 14.9 13.4 14 30.3 36.7 34.9 47 2 4.6 3.9 11.4 12 44.9 1.9 7.8 2.7 14.6 3.4 30.5 1.3 27.2 4.2 39 9.6 39 1.9 0 6.3-4 8-7.1 5.8-11.4 15.2-52 17.9-77.6 3.1-30.1 3.6-45.2 2-57.9-2.4-18.2-2.6-19.2-5.1-30.2-1.3-5.7-2.4-11.3-2.4-12.5 0-3.2-4.5-18.9-11.1-38.8-6.6-20.2-16.6-41.2-25.5-53.4-3.1-4.4-8.8-12.6-12.6-18.3-3.8-5.6-9.8-13.3-13.4-17.1-3.6-3.8-6.1-7.1-5.7-7.4.4-.2 4.9-1.2 9.8-2.1 18.3-3.5 24.1-4.7 30.2-6.2 3.5-.8 14-2.8 23.5-4.5 9.5-1.6 19.6-3.4 22.3-3.9 2.8-.5 8.8-1.6 13.5-2.5 11.1-2 25.7-1.3 49.5 2.6 29.4 4.8 33.3 6 47.8 14.1 9.4 5.3 13 8.1 22.4 17.4 6.1 6.1 13.3 14.4 15.8 18.3 4.9 7.6 9.5 10.9 13.6 9.6 2.7-.9 3.6-3 4.4-10.5 1.1-8.9.8-13.3-1.1-21.5-1.7-7.1-10.5-30.1-14.3-37.1-1.1-2.2-3.4-6.8-5.1-10.4-4.8-10.2-12-19.9-21.5-28.9-8.6-8.1-24.6-20.9-32.9-26.4-11.1-7.3-51.1-18.9-70.8-20.5l-8.7-.7 6.6-5.2c18-14.2 36.9-35.7 47.2-53.8 3.5-6.1 7.1-11.9 8-13 2.6-2.9 2.6-2.9 9.4-20.2l6.2-15.8-.1-20-.1-20-4.1-15.8c-4.8-18.2-6.4-22.3-12.7-31.7-4.4-6.6-11.5-14-13.5-14-.6 0-1.8.8-2.8 1.8-1.5 1.5-2 4-2.4 12.3-.7 11.9-1.9 16.2-11.4 38.3-7.4 17.1-12.7 25.9-19.2 31.7-4.4 3.9-21.8 12.9-24.8 12.9-.9 0-4.6 1.4-8.4 3-10.9 4.8-25.4 8.3-32 7.7-3-.2-7.9 0-10.8.6-5.7 1.1-16.9-.1-25.4-2.7-29.8-9.1-28.4-8.6-43-16.8-13.8-7.8-20.9-15-26.7-27.1-6-12.5-11.4-28.5-10.7-31.8.5-2.9-1-9.9-2.3-9.9-.4 0-1.5-.6-2.5-1.3-1.7-1.2-1-2.5 8.8-16.1 18.8-26.2 19.4-27.7 20.7-54 1.4-27.6-1.1-41.9-11.2-65.6-4.5-10.5-5.4-11.9-10-15.3-2.7-2-5.8-3.7-6.8-3.7s-3.4-.7-5.3-1.5c-2.7-1-3.7-2.2-4.2-4.5-.4-2.2-1.5-3.5-3.8-4.5-1.8-.8-5.1-3.1-7.4-5.2-3.7-3.5-4.2-4.6-6.4-14.3-1.2-5.8-3-12.3-3.8-14.5-1-2.8-1.7-10.6-2.3-26-.7-19.9-2-32.4-5-47.6-.5-3-1.4-10.4-1.9-16.6-.5-6.1-2.4-17.4-4.1-25-1.7-7.6-3.7-16.7-4.5-20.3-.7-3.6-1.7-7.6-2.2-9-.5-1.4-1.7-7-2.7-12.5-5.4-32.6-10.3-45.6-26.5-70.5-7.3-11.3-35.4-41.6-45-48.6-24.9-18.1-51.2-30.1-79.9-36.3-8.1-1.8-16.7-4.4-20-6-8.2-4.1-12.8-5-35.3-6.6-24.4-1.8-46-1.8-54.8 0zm70.5 26.9c14.8 2.8 21.7 4.7 27.7 7.7 2.3 1.2 5.9 1.9 9.3 1.9 6.2 0 8.1.8 26.4 11.4 6.2 3.6 12.5 6.6 13.8 6.6 1.3 0 3.9 1.1 5.6 2.4 1.8 1.4 5 3.3 7.2 4.3 7.8 3.6 18.7 11 27.1 18.4 3.7 3.2 7.2 5.9 7.9 5.9 2.2 0 12.3 11.6 19 21.8 8.2 12.5 19.2 35.3 23.9 49.2 1.9 5.7 3.3 10.6 3.1 10.9-.3.2-1.2-.2-2.1-1-1.3-1.1-1.5-1.1-1.3.2.2.7-.2 2.3-.7 3.4-.6 1.1-2.4 6.4-4 11.7-1.5 5.4-3.1 9.4-3.5 9-.3-.4-2-4.9-3.8-10.1-1.8-5.1-5-13.5-7.3-18.5-2.2-5-5.3-12.5-7-16.6-1.6-4.1-3.3-7.9-3.8-8.4-1.4-1.4-2.5.2-1.2 1.7.7.8 1.9 3.3 2.7 5.7 2.6 7.5 9.3 38.2 10 46 .3 4.1 1.7 12.3 3.1 18.1 2.2 9.6 2.5 14.1 3.2 42.5.5 17.6.6 32.2.2 32.7-.3.4-2.9.9-5.7 1.1-4.9.3-8.3 1.6-11.3 4.1-.8.7-3.3 1.6-5.5 1.9-4.8.9-15.3 6.5-21.2 11.3-2.4 1.9-8.7 5.3-14 7.7-10.7 4.6-16.5 8-23 13.4-4.3 3.5-6.1 3.2-2.2-.4 3.3-3 13.8-17.9 15.5-22.1.9-2.1 1.8-6.2 2-9.1.4-5.8.8-5.8-6.3.3-5.4 4.7-23.2 29.3-24.7 34.1-1 3.1 1.8 5.6 4.8 4.4 1.3-.5 2.6-.6 2.9-.4.3.3 1.6-.1 2.9-1 1.2-.8 4.8-1.8 7.8-2.2 6.1-.7 20.8-5 22.8-6.7.9-.7 2-.6 3.7.3 1.8 1 2.8 1 3.8.2.7-.6 2.9-.9 4.8-.6 3 .5 4.8-.4 15.3-7.5 11.2-7.6 12-8 13.7-6.5 2.2 1.9 6 1.3 9.8-1.7l2.6-2 .7 2.7c.9 3.5 2.3 4.4 7.3 4.4 4 .1 4 .1 7.5 7.6 1.9 4.2 4.5 9 5.6 10.7l2.2 3.2-2.4 2.2c-1.3 1.2-2.4 3.1-2.4 4.1 0 2.9-3.6 5.8-5.4 4.3-2.1-1.8-4.6-.2-6.3 4.1-.9 2.3-4.2 6.2-8.1 9.8-5.4 4.9-7 5.8-9.2 5.3-3.7-.7-8.4 1.9-15 8.2-6.6 6.4-27.1 18.9-28.2 17.1-.4-.6-1.2-3.5-1.8-6.4-1.2-5.3-3.4-7.7-6.4-6.6-2.4.9-2.8 3.6-.8 6.3 1.7 2.5 4.2 8.4 4.2 10.2 0 2-9.6 6.9-13.5 6.9-2.3 0-5.8.9-8 2-2.1 1.1-4 1.9-4.1 1.7-.2-.1.1-3.4.6-7.2 1.6-11.8 1.2-27.7-.6-30.3-2.1-3-4.1-2.8-4.8.5-.3 1.6-1.3 10.4-2.2 19.6-.9 9.3-1.9 18-2.3 19.5-.5 2.1-2.2 3.5-7.3 6.1l-6.7 3.3-8.3-2c-4.6-1.1-12.4-3.8-17.4-6-5-2.2-10.8-4.4-13-4.8-5.5-1-7-1.9-10.2-6.7-2.6-3.8-3.9-7.2-4.5-11.7-.1-.8 5.3-6.6 12.1-12.9 6.7-6.2 13.4-13.3 14.7-15.6 3.2-5.3 3.5-11.6.9-15.2-1.9-2.6-1.9-2.6.1-8.7 1.2-3.4 3.8-9.3 5.7-13.2 4.1-8 10.6-24.1 11.5-28.5.4-2 0-3.5-1.2-4.9-1.2-1.3-1.5-2.7-1-4.8.5-2.7.3-3.1-2.5-4-2.3-.9-3.2-.8-3.5.1-3.3 9.4-6.2 16.2-13.7 32.2-5 10.4-10.6 21.7-12.6 24.9l-3.5 5.9 2.6 1.9c4.6 3.4 3.2 8.5-3.3 11.8-2.9 1.5-5.8 4.8-11.5 13l-7.7 11.1 1.5 3.7c.8 2 1.8 5.6 2.2 7.9.5 3.1 1.2 4.3 2.4 4.3 2.9 0 6.1 3 8.7 8.3 1.5 2.9 4.2 6.9 6 9 2.5 2.7 3.3 4.4 2.9 6-.5 1.9.3 2.6 5.2 5.2 8 4.1 16.8 12.9 18.2 18.1.6 2.2 2.1 4.9 3.2 6 3.6 3.1 7.9 10.6 7.9 13.6 0 2.7-1.9 4.1-2.1 1.5 0-.6-.5-.2-1.1 1.1-1 2-.7 2.7 2.3 5.8 4.3 4.5 8.5 6.7 11.4 6 1.5-.4 2.9.2 4.5 1.9 4.5 4.8 7 2.5 4.6-4.3-1.6-4.5-1.2-5 1.8-2.7 2.6 1.9 9.7 1.9 14.3 0 2-.8 5.5-3.2 7.8-5.3 2.3-2 5-4.2 6.1-4.9 1.8-1.1 1.8-1.2.1-3-1.7-1.7-2-1.7-9.5 1.1-11.8 4.4-16.4 5.2-20.1 3.6-3.8-1.5-18.1-16.7-18.1-19.2 0-.9-.4-2-1-2.3-1.1-.7-1.4-4.5-.4-4.5.3 0 5.1 4 10.6 9 14.9 13.2 15.9 13.5 30.4 8.6 8.7-2.9 12.7-2.4 14 1.7 1.9 6.5 6 4.4 16.2-8.3 11.2-13.9 13.4-17.6 12.7-20.9-.8-3.6 1.2-5.2 3.2-2.5.9 1.2 1.3 3.7 1.1 6.7-.2 3.5 0 4.6 1 4.2 2-.7 1.5.3-4.3 8.7-4.6 6.6-5.1 7.8-3.2 7.2 5.3-1.6 13.2-9.5 19.8-19.6 2.2-3.5 4.7-6.6 5.4-7.1 2.2-1.2 4.8-11.3 4.1-15.8-.5-3.2-.3-4 1.4-4.9 1.7-.9 2-2.1 2-8 0-7.1-.9-8.6-4.3-6.8-1.3.7-2 .3-2.9-1.7-.9-2-.8-3.7.7-8.7 2.2-7.6 3.3-9.1 5.9-8.4 2.2.6 5.3-2.3 7.4-6.8.7-1.5 1.8-2.6 2.5-2.3 1.8.6 1 4.8-1.3 6.9-2.4 2.2-2.5 4.6-.5 11.2 3.4 11.2 4.7 22.8 4.2 36.1-.3 7.2-1.1 14.3-1.6 15.8-2 5.1 1.4 2.6 6.8-5.2 2-2.8 2.2-4.2 1.8-9-.6-6.7-4.4-28.3-5.7-32.6-.5-1.7-1.1-6.2-1.2-10-.3-6.9-.3-7 2.3-7.3 3-.3 4.5 1.6 7.4 9.3 3.2 8.8 9.6 21.6 10.5 21 .4-.3.6.3.3 1.4-.3 1.2.5 2.5 2.5 4 1.7 1.2 3.6 3.8 4.3 5.9.6 2 1.8 4.5 2.6 5.4 2.6 3 15.9 7.8 23.1 8.5 3.7.3 7.7 1.2 8.9 1.9 3.1 2 3.7 6.8 1.9 15.7-.9 4.2-1.6 8.6-1.6 9.9l.1 2.3 1.9-2.4c1.1-1.3 2-2.9 2-3.6 0-.7.6-1.8 1.4-2.4 1-.8.5 3.2-1.9 14.9-1.9 8.9-3.8 17.5-4.4 19.2-1.4 4-29.5 31.1-33 31.8-1.9.4-2.5 1.1-2.4 2.5.2 1.1-1.4 4-3.6 6.5l-3.9 4.4-5.8-1.8c-3.3-1-10.5-3.8-16.1-6.2-8.4-3.6-11.4-4.4-16.4-4.4-7.9 0-25 3.5-30.2 6.2-5.5 2.8-8.8 3.7-17.4 4.8-15.9 2.1-42.3 17.2-42.3 24.2 0 1.1-1.3 3.7-2.8 5.7-7.9 10.2-13.3 21.9-17 37.1-2.2 8.9-4.6 27.6-4 30.5.3 1.7 7.3-13.8 10.8-24 1.1-3.3 3.6-8.3 5.5-11.2 1.9-2.8 4.6-8 6.1-11.5 2.7-6.4 8.1-15.5 11.8-19.6 2-2.3 10.5-6.6 11.3-5.8.3.2-.8 2.4-2.3 4.8-5 7.9-18.5 37.2-20.4 44.3-2.9 10.9-3.4 15.7-1.6 18 2.3 3.1 4.5 1 7-7 2.9-9.1 15.3-33.8 22.1-44 7.6-11.5 17-21.3 22.9-24.1 2.8-1.3 5.2-2.1 5.5-1.9.2.3-1.7 2.7-4.2 5.4-10.1 10.8-21.3 30.3-25.7 45-3.2 10.4-1.1 12.2 3.5 3 1.4-2.7 5.3-8.4 8.8-12.6 3.4-4.3 8.8-11.2 11.9-15.3 5.7-7.6 15.6-17.8 14.5-15-.3.8-2.9 6.8-5.8 13.4-11.7 26.7-12.8 52.3-3.3 79.1 2.5 7.1 6 17.5 7.8 23 3.5 10.8 20.1 44.1 28.4 56.9 6.1 9.5 29.8 35.4 54.7 59.6 3.9 3.8 31 24 32.1 24 .4 0 7.7 3.9 16.3 8.7 8.6 4.8 18.3 10.1 21.6 11.8 6.5 3.4 28 24.1 33.8 32.5 1.7 2.5 4.5 6.3 6.2 8.5 5.4 6.8 9 13.5 14.2 26.5 6.7 16.6 11.1 31.1 13.4 43.9 1 5.9 2.7 15.5 3.9 21.6 2.8 15.3 2.7 22.6-.3 26.1-1.5 1.7-3 2.5-3.9 2.1-.8-.3-3.2-3.5-5.2-7-3-5.4-3.6-7.5-3.6-12.4 0-15.2-5.4-48.5-9.1-56-1.3-2.7-3.2-5-4.2-5.1-1.7-.4-1.8.2-1.2 8 .3 4.5 1.2 13.7 2 20.3 1.9 16 2.5 24.7 1.7 24.3-2-.9-15.7-8.1-16-8.3-.2-.2-1-4.7-1.8-10.1-.8-5.5-2.2-12.6-3-15.9-2.2-8.3-12.3-32.3-17.8-42-6.2-11.1-6.9-12-9-11.2-1.4.6-1.7 1.5-1.3 4.5.5 3.6 10.5 33.1 12.5 36.9 1.2 2.2 6.3 21.6 5.8 22-.2.2-2.1-1.1-4.3-2.9-3.2-2.6-4.5-4.6-5.9-9.2-1-3.3-4.2-9.6-7-14-2.9-4.5-7.2-11.3-9.7-15.1-2.5-3.9-6-9.9-7.7-13.5-1.8-3.6-4.3-7.9-5.6-9.5-1.2-1.7-4.6-7.5-7.6-13-4-7.5-5.8-10-7.3-10-2.7 0-3 3.1-1.1 11.9 1 4.4 3.3 10 5.7 14.2 2.2 3.8 5.2 9.6 6.5 12.9 1.3 3.3 4 8.5 5.8 11.5 1.9 3 4.5 7.8 6 10.7l2.6 5.2-7.5-4.8c-6.1-3.9-8.3-6-12.3-12.2-2.7-4.1-7-9.8-9.5-12.7-2.5-2.8-5.1-6.2-5.8-7.4-.6-1.3-3.5-5.2-6.4-8.8-5.8-7.1-12.4-17.5-18.4-29-5.1-9.9-7.3-12.5-9.6-11.6-1.6.6-1.7 1.5-1.1 8.3.5 6.4 1.5 9.7 6.1 19.7 3.1 6.7 7.9 15.3 10.8 19.3 6 8.3 13.8 20.3 13.3 20.3-2.4 0-11.9-4.8-13-6.5-.9-1.3-6.7-6.9-13-12.4-17.7-15.6-27-30.6-35.5-57.6-4.7-14.8-5.3-16-7.5-15.2-2.7 1-2.2 18.1.8 29.8 4.2 16.3 12.7 33.8 21.4 43.9 3.9 4.7 4 5.1.3 3.7-1.8-.6-3.5-2.4-4.5-4.6-.9-2.2-3.5-4.9-6.5-6.9-13.3-9-32-41.5-36.7-63.6-.8-3.9-2.4-13.2-3.5-20.6-2.3-15.2-3.9-18-7.5-12.6-2.2 3.5-2.9 18.6-1.5 31.9 1.7 15.2 6.9 31.6 14.3 45.2 3.4 6 6.3 11.4 6.6 12 1 1.9-18.4-18.1-23.3-24-5.6-6.8-18.4-29.9-21.5-39-4.1-11.9-11.9-40.2-13.5-49.3-1.8-9.5-3.1-11.6-6-9.2-5.1 4.2 2.3 55.6 10.9 75.5l2.6 6-5.5-6c-7.2-7.9-18.1-23.5-21.6-31-6.3-13.3-9.5-28.9-11.9-57.4-.6-6.9-1.2-12.7-1.5-12.9-.2-.2-1.1-.2-1.9.1-2.9 1.1-3.9 8.7-3.8 28.2.1 15.2.5 20.9 2.1 28.4 2.1 9.7 5.8 20.1 9.3 26 3.6 6.3-.9 1.4-8.9-9.8-14.3-19.9-17.7-28.4-20.2-51.1-.6-5.8-1.7-14.2-2.3-18.8-.6-4.8-.7-12-.3-16.9.6-7.9.6-8.5-1.2-8.1-3.2.6-7.3 16.8-7.3 29.1 0 4.1-.4 5.7-1.2 5.5-1.4-.5-1.9-1.6-4.8-10.2-2-5.9-2.2-8.1-1.6-15.5.3-4.7 1.9-14 3.5-20.6 3.8-15.5 4.2-18.3 3.2-19-1.4-.8-6.6 5.7-8.7 10.8-1 2.6-2.2 4.7-2.6 4.7-1.3 0-2.1-13.5-.9-17.5 5.4-19.2 6.5-24.5 5.4-25.6-.9-.9-1.8-.8-3.8.5-2.4 1.6-3.3 3.1-6 10.1-.4 1.2-.9 1.5-1.2.8-.2-.6.2-2.4 1-4 .8-1.5 1.7-4.6 2.1-6.8.4-2.2 1.6-8.2 2.8-13.3 1.6-7.3 1.8-9.8 1-11.8-1.7-3.5-4.9-3.1-7.3 1.1-1.2 1.9-2.2 3.5-2.4 3.5-.2 0-.1-3.6.2-7.9.3-4.4 0-16.5-.6-27.1-1.1-17.2-1.1-19.3.3-21.5.9-1.4 2.1-2.5 2.6-2.5s1.9 2.7 3.1 6c2.4 6.7 6.1 11 9.4 11 1.2 0 3.4.9 4.8 2s3.2 2 4 2c.8 0 2.4 1.6 3.6 3.5 2 3.4 4.4 4.5 5.6 2.5.4-.6-.5-4.1-1.8-7.8-1.4-3.7-5-14.4-8-23.7-3.1-9.4-10.6-30.3-16.6-46.5-6.4-16.9-11.1-30.9-11.1-33 0-2.3-.3-3.1-.9-2.1-.6 1-1.2.3-2.1-2.5-.7-2.2-1.7-4.5-2.3-5.2-1.3-1.7-5.2-1.5-6.7.3-1.2 1.4-1.5 1.4-3.1-.1-2.5-2.3-4.2-1.3-5.8 3.2-.7 2.2-3.7 8.6-6.6 14.4-5.6 11.2-20.2 49.9-28 74-2.5 8-5.8 17.5-7.1 21.2-1.4 3.7-2.3 7.2-1.9 7.8 1.2 2 3.6.9 5.6-2.5 1.2-1.9 2.9-3.5 3.8-3.5 1 0 2.8-.9 4.1-2 1.3-1.1 3.3-2 4.5-2 2.7 0 4.5-1.8 4.5-4.6 0-1.3 1-3.1 2.3-4.1 1.2-1 2.9-3.3 3.6-5.1 1.5-3.7 1.8-3.8 4.3-1.5 1.1 1 1.8 3 1.8 5.1 0 1.9.9 4.9 2 6.6 3.1 5.1 5.1 24 4.8 45.6-.2 14.9-.6 18.4-1.7 18.2-1.8-.4-4.1 1.7-4.1 3.8 0 .9 1 3 2.1 4.4l2.2 2.8-2.1 13.1c-1.2 7.3-2.4 16.8-2.8 21.2-.3 4.4-.8 8.3-1.1 8.8-.2.4-1.7-1.6-3.1-4.5-1.6-3.1-3.5-5.4-4.6-5.7-1.7-.3-1.8.1-1.2 3.5.4 2.2 1 11.1 1.2 19.9.5 15.5.5 16.2-2.2 23.5-3.1 8.8-9.3 21.5-12.2 25-1.6 2-2.3 2.2-3.3 1.3-1-1-.9-2.8.4-8.8 2.5-11.2 2.2-15.5-1.5-23.3l-3.2-6.7-.3 4c-1.4 18.1-5.9 34-20 69.5-2.5 6.2-11.2 20.5-12 19.6-.2-.2.8-5.9 2.2-12.7 3.5-17.2 5.2-37.8 3.7-43.5-.7-2.4-1.2-5.2-1.2-6.2s-.6-2.7-1.4-3.7c-2.4-3.3-4.3-.3-6.1 9.8-1.5 8.4-8.2 32.4-13.4 48.7-1.2 3.6-4.3 10.4-6.9 15.2-4 7.1-6.7 10.5-16.5 19.8-10.8 10.3-13.8 12.5-10.3 7.5 2.5-3.7 8.6-25.8 9.7-35.4 1.3-10.8.7-29.7-1-32.9-1.2-2.2-4.5-3-5.5-1.4-.3.5-1.4 6.9-2.5 14.3-4.1 27.4-8 38.7-20.2 59.2-7.1 11.8-13.6 19.4-23.4 27.2-6.5 5.1-6.9 4.9-2.5-1.5 12-17.7 19-38.5 19-56.6 0-10.4-.9-13-3.5-10.3-.7.8-3.2 7.5-5.5 14.9-7 22.3-16.5 39.6-27.8 50.3-21 20.1-22.9 21.6-28 23.6-2.9 1.2-5.5 2.1-5.7 2.1-.3 0 1.1-2.1 3-4.6 1.9-2.5 3.5-4.9 3.5-5.3 0-.4 2.7-4.6 6.1-9.2 6.9-9.4 15.1-26.1 16.8-33.9 1.6-7.5 1.4-12.9-.5-13.7-2.1-.8-3.6.9-8.7 10.2-8 14.5-11.1 19.6-16.7 26.8-3.1 4-7.1 9.4-8.9 12-1.8 2.7-5.2 7-7.6 9.7-2.3 2.6-5.9 7.5-8 10.9-2.7 4.3-5.3 7-8.9 9.2-2.8 1.8-6.2 3.9-7.5 4.7-2.4 1.7-2.4 1.6 7.5-16.8 1.3-2.5 3.7-7.4 5.4-11 1.6-3.6 4.5-9.5 6.4-13.1 4-7.4 6.8-20.1 4.9-22-2-2-4.1-.2-8 7.1-2.1 3.9-6 10.6-8.6 14.8-2.7 4.2-5.9 10.1-7.3 13-1.3 3-3.7 7-5.2 9-1.6 2-4 5.7-5.2 8.2-1.2 2.5-3.5 6.1-5 8-3.4 4.4-6.5 10.4-7.9 15.5-.7 2.7-2.5 5.1-5.2 7.4-2.2 1.8-4.2 3.1-4.4 2.9-.8-.7 5.1-19.7 11.5-37.3 6.8-18.8 7.8-22.8 6-25-1.6-1.9-4.6-.4-5.5 2.7-.4 1.3-2.5 5.4-4.7 9.2-9.1 15.6-17.2 37.9-19.9 54.9-1.8 11.8-1.8 11.8-6.8 17.5-2.7 3.1-6.5 7.3-8.5 9.1l-3.6 3.5v-4.5c0-2.4.7-10.9 1.5-18.9 2.6-25.8 3.6-38.1 3-39-2.8-4.6-9 11.3-11.4 29.5-2.6 19.5-3.2 26.7-3 35l.2 8.8-4.1 3.9c-4.7 4.3-5.2 4.5-8.2 2-3.3-2.7-3.7-11.9-1.1-26.2 1.2-6.3 3-16.3 4-22.1 2.8-15.6 7.3-29.7 15.9-50.4 3.1-7.5 9.6-19 11.2-20 .6-.4 3.2-3.9 5.9-7.9s7.3-9.2 10.1-11.6c2.9-2.4 7.9-7.5 11.1-11.2 4.6-5.4 7.6-7.7 14.1-11.2 4.6-2.3 14.5-7.7 22.1-11.9 7.6-4.3 14.1-7.7 14.3-7.7 1 0 13.2-8.6 21.9-15.4 9.2-7.3 39.9-37.4 53.6-52.6 4.2-4.7 10.2-12.4 13.4-17.3 7.8-12.1 25-46.4 27.6-55.1 1.1-3.9 4.3-13.7 7-21.9 6-17.6 7.8-29.4 5.2-33.4-1.4-2-1.4-2.9-.4-4.5 3.1-5 .2-23.7-5.5-35.1-3.8-7.5-25.1-29.7-28.4-29.7-3.5 0-1.8-2.3 3.8-5.2 5-2.5 5.5-2.6 10-1.3 2.6.7 7.2 2 10.4 2.9 4.5 1.3 5.5 2 5.2 3.4-.3.9 1.3 4.5 3.6 8 5.7 8.9 8.9 15.5 15.9 33.1 5.3 13.2 6.1 16 5.6 19.6-.4 2.5 0 6.5 1 10.5 1.1 4.3 1.5 8.1 1.1 11.2-.5 3.8-.4 4.8.7 4.8 2.3 0 3.4-2.1 4-7.8.9-7.4 1.7-8.2 3.6-3.2 2 5.4 4.4 7.1 6.7 4.8 1.6-1.6 1.6-2 .1-6.9-.9-2.8-1.7-6.5-1.7-8.3 0-5-5.7-25.1-9.7-34.4-2-4.7-5.5-12-7.8-16.1-2.4-4.2-4.2-7.7-4-7.9.1-.1 3.2 1.2 6.8 2.9 3.7 1.7 8.7 3.4 11.3 3.7l4.7.7 4.6 11.4c3.4 8.5 4.7 10.8 4.9 8.8.5-4.2-2.7-36.9-3.8-38.2-.5-.6-5.2-3.4-10.4-6.1l-9.4-4.9-6.2 3.3c-7.6 3.9-11 4-19.2.5-6.2-2.7-17.1-9.4-18.3-11.3-.3-.6-1.7-.7-3-.4-1.3.3-4.8-.1-7.7-.9-2.9-.8-6.6-1.5-8.3-1.6-1.6 0-8.4-.1-15-.3l-12.1-.3-8.4 3.9-8.4 4-3.5-4.1c-2-2.2-4.3-4.2-5.2-4.5-.8-.3-5.2-3.1-9.7-6.2-7.7-5.2-12.2-6.9-12.2-4.7 0 .6 3.5 3.3 7.8 6.2 9.4 6.3 8.9 5.8 7.3 6.9-2 1.2-4.1.1-5.2-2.7-.6-1.6-1.5-2.3-2.8-2.1-2.4.4-11.1-5-11.1-6.8 0-.8-1.1-1.7-2.6-2-2.1-.5-3.9-3.4-10.5-16.6-4.4-8.7-7.7-16.3-7.4-16.8.3-.5.1-1.7-.4-2.7-.6-1-2.9-6.3-5.1-11.7-3.4-8.1-4-10.4-3.1-12.2 1-2.3 6.2-4.4 10.9-4.4 2.6 0 7.3-2.2 9-4.3.7-.7 1.9-5.1 2.8-9.7 1.7-9.3 7.7-26.9 12.4-36.3 5.7-11.5 11.2-15 11.8-7.5.2 2.5-1.6 9.4-5.7 21.6-6.3 18.3-7.4 24.2-4.6 24.2.9 0 2.7 1.1 4.1 2.5 2.8 2.8 2.9 2.6 3.9-5 .3-2.8 1.9-11.5 3.5-19.5s3-17.5 3.2-21.1c.3-5 .9-7.3 2.7-9.5 1.5-1.9 2.1-3.8 1.9-5.6-.3-1.9.1-2.8 1.3-3.1 2.3-.6 2.9.1 2.9 3.4 0 4 3.9 7.5 5.5 4.9 1-1.7 2.1-1.1 3.3 1.5 1.5 3.4 1.5 4.5-.1 4.5-1.7 0-6 4.6-8 8.5-4.7 9.5-7.2 29.6-5.1 42.4 1.5 9.4 3 12.4 8 15.3 1.9 1.1 3.4 2.4 3.4 2.9s.7.9 1.5.9c2.4 0 1.8-3.2-2.1-10.5l-3.7-6.9 1.2-10c3.8-30.8 6.1-39.1 11-38.4 1.2.2 1.6-.5 1.6-3 0-4.4 1.2-4 3.5 1 2.2 4.9 2.4 7.1 1 9.9-.8 1.4-1.5 1.7-2.8 1-2.7-1.3-4-.3-6.8 5.2-2.7 5.3-3.3 10.4-3.8 33.2-.1 6.8 0 7 2.4 7 2.1 0 3.6 1.7 8.7 9.5 3.3 5.2 7.4 11 8.9 12.8 2.5 3.1 15.4 12.5 18.9 13.8 2.5 1 1.8-3.2-.9-5.3-1.3-1-5.4-7.4-9.1-14.2-3.7-6.9-8.5-15.3-10.6-18.7-2.1-3.5-3.4-6.4-2.9-6.6.5-.2.4-2.1-.2-4.4-2.4-8.8 1.5-10 5.4-1.6 1.5 3.1 3.7 6.8 4.9 8.1 1.3 1.3 4.4 5.7 7 9.6 5.3 8.2 22 27.8 25.6 30.2 4.4 2.9 4.2-.6-.3-7.2-3-4.4-2.7-5.3.9-2.5 2.6 2 4.7 2.6 4.7 1.2 0-.4-2.4-2.3-5.2-4.2-8-5.4-21-18.5-20.6-20.7.6-2.9 2.9-2 13 5.2 6.9 4.9 11.2 7.3 15.9 8.5 3.5 1 11.1 3.4 16.8 5.4 5.7 2 11.3 3.6 12.4 3.6 1.1 0 4-1.2 6.4-2.6 2.4-1.4 5.3-2.4 6.5-2.2 1.9.3 1.6.7-2.1 3.1-2.8 1.9-4.8 4.3-6.1 7.2-1.3 2.9-3.3 5.3-6.1 7.2l-4.3 2.8 3.8.3c2.2.2 4.7-.3 6.1-1.2 3.5-2.3 3.6-2.1 1.8 3-2 5.8-.7 7.6 3.3 4.8 1.5-1 3.9-2.6 5.4-3.4 4.9-2.6 17.5-14 21.6-19.3 4.9-6.5 19.5-20.7 21.2-20.7 1.4 0 10.8-6.3 15.4-10.2 1.5-1.3 5-6.7 7.8-12.1 2.9-5.3 5.6-9.7 6.1-9.7 1.6 0 1-4.7-.9-7-2-2.5-1.9-3.9 1.2-15 2.3-7.9 2-10.2-1.4-12.5-1.7-1.1-8.3-5.6-14.7-10-6.5-4.4-11.9-8-12.1-8.1-.1-.1.2-2.4.8-5.1 1.1-4.8 1-5.3-2.4-11.4-1.9-3.6-5.6-11.4-8.1-17.4-5.5-13-14.8-31.1-17.8-34.3-2.5-2.7-4.7-2.8-5.4-.2-.6 2.4-.7 2.4-3.8.4-3.7-2.4-3.2-.3 2.5 9.5 9.6 16.8 19 40.4 19 47.5 0 1.7-1.1 5-2.4 7.2-2.1 3.7-2.2 4.8-1.5 10 .5 3.3 1.1 6.9 1.4 8.1.9 4.1 5.6 8.2 14.1 12.5 4.8 2.4 9.7 5.3 10.9 6.4 2.1 1.9 2.2 2.6 1.4 6.2-1.6 7.1-5.1 13.2-7.9 13.8-5.5 1.2-12.8 3.7-19.6 6.9-3.9 1.8-10.6 4-14.9 5l-7.7 1.7-6.6-3.4c-7.8-3.9-7.3-2.4-9.7-26.3-2-20.4-2.3-21.7-4.3-21.3-3.6.7-4.4 4.6-3.8 20.3.3 8.2.9 16 1.2 17.3l.6 2.2-4.3-2c-2.4-1.1-6.2-2-8.4-2-3.9 0-13.5-4.9-13.5-6.9 0-1.8 2.5-7.7 4.2-10.2 2.8-3.7.4-7.8-3.6-6.3-1.7.7-2.5 2.3-4 8.7-.6 2.7-1.5 4.8-2.1 4.8-2.5 0-21.4-12-26.9-17.1-7.7-7-10.8-9-14.3-9-2.1 0-5.5-2.3-13.3-9-10.4-8.9-14-10.7-14-7.2 0 1.2-1.1 2.1-3.2 2.7-3.6 1.1-4.9 4.5-2.8 7.1.9.9.9 1.4.1 1.4-4.3 0-10-26.5-7.5-35.5.3-1.1 2.2-2.9 4.2-4.1 2-1.1 6-3.5 8.9-5.4 6.6-4.1 12.4-5.3 16.9-3.4 1.8.8 4.5 1.4 5.8 1.4 1.5 0 5.4 2.2 9.3 5.2 8 6 12 7.9 14.7 6.9 1.1-.5 3.1-.2 4.5.6 1.4.7 3.5 1.3 4.7 1.3 1.2 0 3.2 1.6 5 4 3.2 4.4 6.1 5.1 7.3 1.8.7-2.1 1.2-1.8 6.7 4.1 4.9 5.3 10.3 9.1 12.9 9.1.3 0 .5-1.2.5-2.6 0-3 2.3-2.8 2.9.2.8 4.7 8.5 9.3 12.1 7.4 3.7-2 2.1-5.2-4.3-8.8-2.1-1.2-4.5-2.2-5.3-2.2-.8 0-1.4-.7-1.4-1.5s-.4-1.5-.9-1.5-2.2-1.8-3.8-3.9c-2.2-3.1-3.2-3.7-4.5-3-1.1.6-1.9.6-2.3-.1-.3-.5-1.6-1-2.8-1-3.8-.1-9.4-2.6-13.8-6.2-2.4-2-6.4-4.6-8.9-5.8-2.5-1.3-9.6-5.6-15.9-9.7-10.8-7-11.5-7.3-14.6-6.3-2.6.9-4.1.8-7-.4-5-2.1-6.4-6-6.7-19.2-.2-9.3.1-11.8 2-16.7 2.6-6.8 2.9-12.7.7-12.7-.8 0-1.5-.1-1.5-.3 0-.2 2.2-11.6 4.9-25.3 4.9-24.7 7.6-33.9 19-66.2 6.6-18.7 6.7-23.4.4-17.1-7.2 7-15.3 27.7-23.3 59.5-3.7 14.6-4.6 17.2-7 19.1-3.3 2.7-9.4 11.7-18.9 28-3.9 6.8-7.4 12.3-7.8 12.3-.3 0-.3-2.4-.1-5.4.4-4.9 1-6 5.9-11.4 6.1-6.8 16.9-24.2 19.9-32 1.1-2.9 2-7.3 2-9.8v-4.6l-2.9 2.4c-3.3 2.7-7.7 9.3-15.6 23.5-3.2 5.7-6 10.3-6.2 10.3-.3 0-.1-1.9.2-4.3.4-2.3.7-7 .7-10.4l-.1-6.2 2.9.5c2.7.6 3.2.1 7.6-6.7 6.4-9.9 15.1-26.9 15.9-31.1 1-5.1-.7-13.2-2.8-13.6-1-.2-1.9.4-2.3 1.5-.3 1-1.2 2.9-2 4.3-.9 1.4-4.9 9.2-9 17.5-8 16.2-8.3 15.7-2.8-4.5 5.6-20.5 12.3-40.1 16-47 8.5-15.5 19.1-30.2 35.6-49.5 13.9-16.4 43.1-36.9 55.4-39 2.1-.4 8.5-2.4 14.1-4.6 13.5-5.2 23.8-7.5 41.8-9.4 12.7-1.3 30.1-3.3 32.7-3.9h18c14.1.1 19.9.6 31.3 2.8zm176.3 162.2c.7 4.1.5 5.5-.8 7.1-.9 1.2-2.9 6.9-4.5 12.7-1.5 5.9-3.1 10.3-3.5 9.9-.4-.4-1.6-4.4-2.8-8.9l-2.1-8.1 2.4-4.8c1.4-2.6 3.7-8.6 5.2-13.2l2.8-8.5 1.3 4.3c.7 2.4 1.6 6.7 2 9.5zm4.9 26.5c.9 6.9.8 7.3-3.6 19.5-2.4 6.8-4.6 12.2-4.8 12-.2-.1-1-4.1-1.8-8.7l-1.5-8.4 3.4-6.5c1.9-3.6 4-8.4 4.7-10.8.7-2.3 1.5-4.2 1.9-4.2.4 0 1.1 3.2 1.7 7.1zM394 264.8c0 1-2.5 5.6-5.5 10.2-3.1 4.6-8.8 13.9-12.7 20.7-3.9 6.8-7.2 12.3-7.4 12.3-.2 0 .4-1.6 1.2-3.5.7-1.9 1.4-4.5 1.4-5.7 0-1.3 2.4-5.3 5.4-8.9 2.9-3.7 7.9-11.2 11.2-16.8 3.2-5.5 6-10.1 6.1-10.1.2 0 .3.8.3 1.8zm415.8 21.1c-.4 7.7-1 10.9-3.1 15.5-1.5 3.2-2.7 7.7-2.8 10v4.1l-2.1-4.5c-1.9-4.2-2.1-4.3-2.9-2.3-1.6 4.2-2.2 2.3-1.6-5.1.4-5.8 1.1-8.3 3.1-11.3 1.4-2 3.8-7.3 5.2-11.7 3.4-10.2 4.8-8.4 4.2 5.3zm-432.7 27.8c-1.5 2.9-4 5.9-4.1 5 0-1 3.9-6.7 4.6-6.7.3 0 0 .8-.5 1.7zm442.7 60.9c2.8 1.9 2.9 6.3.2 9.7-1.1 1.4-2 2.8-2 3.1 0 .3 2.4 3.6 5.3 7.4 2.8 3.7 7.2 9.8 9.6 13.5 3.9 6 4.3 7.1 3.3 9.2-1.4 2.9-4.6 3.3-8.1.9-2.8-2-12.6-16.8-16-24.2l-2.5-5.3 1.8-6.7c2.5-9.5 3.9-10.8 8.4-7.6zm-474.4 5.6c1.3 4.9.6 8-2.3 10.9-3.5 3.4-5.1 3.6-7.6.9-2.2-2.5-1.5-5.4 2.5-10.3 3.6-4.2 6.5-4.8 7.4-1.5zm10 13.2c-.2 5.6-16.4 38.2-19.8 39.8-3.2 1.4-5.6-.3-5.6-4.1 0-3.6 5.7-15.3 14.2-28.9 5.8-9.2 7.5-11.2 9.2-11 1.7.2 2.1.9 2 4.2zm498 29.6c3.8 1.4 5.1 4.6 3.1 7.6-2 3.1-5.9 3.1-9-.1-3-2.9-3.1-3.9-.5-6.5 2.3-2.3 2.9-2.4 6.4-1zm-537.8 22.7c-.2.3-1.1-.8-2-2.5-.8-1.6-1.2-3.3-.8-3.7.4-.3 1.3.8 2 2.5.7 1.8 1.1 3.4.8 3.7zm-3.8 3c-.5 2.5-2.8 2.8-2.8.4 0-1.2.6-2.1 1.6-2.1.9 0 1.4.7 1.2 1.7zm567.1 3.6c1.3 3.4 1.4 7.7.4 7.7-.4 0-2.7-.7-5-1.6-4.5-1.7-4.7-2.2-3.7-7.1.5-2.6.9-2.8 3.9-2.5 2.7.3 3.6 1 4.4 3.5zM322 458.7c1.2 2.7 3 6.9 4.1 9.5l1.8 4.7-4.7 2.1c-2.6 1.2-6.9 3.5-9.5 5.2-4 2.6-5 2.9-5.8 1.7-1-1.7.8-3.6 8.1-8.7 6.4-4.5 8.2-6.8 6-8.2-1.9-1.2-4.5-.5-9.2 2.6-2.1 1.3-4 2.4-4.3 2.4-.3 0-.5-1.5-.5-3.3 0-2.5.9-4.2 4-7.2l3.9-3.8 2.1 2.6c3 3.8 4.2 3.4 2.4-.8-2.2-5.3-.8-4.2 1.6 1.2zm557.8 7.9c.6.2 1.2 1.9 1.2 3.8 0 3.4-.1 3.4-2.9 2.3-3.2-1.2-6.1-.4-6.1 1.7 0 .8 1.8 2.9 4 4.6 3.5 2.8 4 3.7 4 7.4 0 2.4-.3 4.5-.6 4.8-.3.3-3.7-.8-7.5-2.6-5.9-2.6-6.9-3.4-6.4-5.1.3-1.1 1.3-6.1 2.2-11.1l1.6-9 4.6 1.4c2.5.9 5.2 1.7 5.9 1.8zm-548.3 14.3 1.5 3-5.8 3.2c-3.1 1.8-7.6 4.6-10 6.2-2.4 1.6-4.5 2.7-4.7 2.5-.2-.1-.6-1.5-1-2.9-.6-2.4 0-3 6.2-6.8 3.7-2.2 7.9-5 9.3-6.1 1.4-1.1 2.6-2 2.7-2 .1 0 .9 1.3 1.8 2.9zm6.3 13c.9 2.7.8 2.9-1.6 3.4-1.5.3-7.3 3.5-12.9 7.2-9.1 6-12.3 7.1-12.3 4.6 0-.5.8-.8 1.7-.7 1.4.1 1.7-.6 1.4-3.7-.2-3 .1-3.7 1.6-3.7 1 0 5.9-2.2 10.8-4.9 5-2.7 9.3-5 9.7-5 .3-.1 1.1 1.2 1.6 2.8zm538.9 4.3c.9.7.8 2-.4 5.4-.8 2.4-1.9 4.6-2.4 4.9-.9.6-12.9-5.3-12.9-6.4.1-.3.7-1.7 1.5-3.1.8-1.4 1.4-3.8 1.5-5.3v-2.8l5.8 3.2c3.1 1.8 6.2 3.6 6.9 4.1zm-530.3 12.5c3.1 5.8 5.5 10.7 5.3 10.8-.1 0-1.4.9-2.9 1.8-3.4 2.1-3.3 2.2-5.2-.8-1.6-2.4-1.6-2.7.4-5.4 3-4.3 2.6-5.4-1.7-4.9-3 .4-4.5-.1-7-2.1l-3.3-2.6 4.3-3.7c2.3-2 4.3-3.7 4.4-3.8.1 0 2.7 4.8 5.7 10.7zm514.9-.6c2.3 1.2 5.2 2.8 6.4 3.6l2.2 1.5-3.2 4.9c-3.4 5.2-4.7 5.8-6.8 3.2-.8-.9-3.1-2.8-5.1-4.3l-3.7-2.7 2.5-4.1c1.4-2.3 2.7-4.2 3-4.2.3 0 2.4 1 4.7 2.1zM326 513.9c0 1.1.3 2.6.6 3.5.4 1-.3 1.9-2 2.7-2.2 1-2.9.9-4.6-.6-2.7-2.5-2.5-3.2 1.3-5.5 4-2.5 4.7-2.5 4.7-.1zm524.8 10.8c2.5 2.1 5.3 4.3 6.1 5 1.4 1 1.2 1.5-1.3 4.2-1.7 1.7-3.3 3.1-3.7 3.1-.4 0-3.2-2-6.3-4.6l-5.6-4.5 2.8-3.5c1.5-1.8 2.9-3.4 3.1-3.4.2 0 2.4 1.7 4.9 3.7zM332.9 529l1.6 2.4-2.7-1.9c-1.5-1.1-2.8-2.4-2.8-2.8 0-1.5 2.3-.1 3.9 2.3zm28.8-.1 2.4 2-3.3 1.7c-1.8.9-5.6 3.4-8.5 5.5-2.9 2.2-5.6 3.9-6.1 3.9-1.1 0-5.7-4.9-5.1-5.4.9-.9 16.4-9.5 17.2-9.5.5-.1 2 .8 3.4 1.8zm480.1 8.9 5.3 4.8-3.5 3.9-3.4 4-5.6-5.5-5.6-5.4 3.2-3.3c1.8-1.8 3.4-3.3 3.7-3.3.4.1 3 2.2 5.9 4.8zm-470.4-.9c.3.4-1.7 2.7-4.4 5-3.1 2.6-5.3 5.4-5.8 7.4-.5 1.8-1.6 3.3-2.6 3.5-1.9.4-6.6-3.4-6.6-5.2 0-1 16.3-11.2 18.2-11.5.4-.1.9.3 1.2.8zm19 3c.7 1.1-1.4 2-3.1 1.3-.7-.2-1-.8-.7-1.3.7-1.2 3.1-1.2 3.8 0zm435.3 6.7c-.9.9-2.8-.6-2.1-1.8.4-.6 1-.6 1.7.1.6.6.8 1.3.4 1.7zm-472 49.6c1.8 1.8 3.3 4.2 3.3 5.5 0 1.3 1 2.9 2.4 3.8 1.3.9 3.1 3.5 3.9 5.8 1.9 5.1 3.2 12.7 2.1 12.7-.4 0-2.1-1.1-3.8-2.4-6-4.5-9.6-5.8-14.1-5.2-2.3.4-5.1 1.3-6.1 2.1-1.8 1.5-1.8 1.6.5 3.5 1.3 1.1 3.4 2 4.6 2 1.6 0 3.8 1.7 6.8 5.2 5.4 6.4 12.7 18.3 12.7 20.8 0 2.4-3.2 12-4 12-.3 0-2.5-2.7-4.8-6-7.6-10.7-20.9-20-27-18.8-3.5.7-2.1 3.6 4.8 10.4 10 9.6 11.3 12.4 11.8 25.9l.4 11-4.7 6.3c-2.6 3.5-4.9 6.2-5.1 5.9-.3-.2-1.1-4.8-1.9-10.1-1.7-11.4-3.9-15.9-10.9-23.2-3.8-4-5.9-5.4-8-5.4-3.3 0-3.1.9 1.9 11.5 3.9 8.3 4.8 14.5 3.6 24-1.2 9.4-3.9 14.7-11.4 22.6l-6.4 6.6.9-4.6c1.2-6.3.1-13.9-3.4-24.9-2.9-8.8-3.4-9.6-9.3-14.7-9.6-8.5-13.7-6.9-7.5 2.9 4.5 7.1 6.6 18.1 5.1 26.9-1.8 10.6-5.7 16.9-13.6 21.8-2.5 1.6-9.5 2.7-9.5 1.6 0-.2 1-2.3 2.2-4.8 1.9-3.8 2.2-6 2.2-15.9 0-8.7-.4-12.5-1.7-15.5-2.8-6.4-6.6-11.2-9.8-12.6-4.9-2-5.4-.2-2.4 9.2 4.8 15.2 1.5 25.6-12.3 39.5-3.5 3.5-5.3 4.4-9.5 5.1-2.9.5-5.3.6-5.5.3-.1-.4 1.4-4.1 3.4-8.4 3.5-7.6 3.6-8.2 3.2-17.6-.3-8.6-.6-10.1-3.1-13.8-2-3-3.4-4.2-5.2-4.2-2.4 0-2.4 0-2.4 11.1 0 10.2-.2 11.5-2.7 15.8-3.5 6.1-7.1 9.9-11.6 12.2l-3.7 1.9-7.2-3c-10.2-4.1-10.9-5-7.4-9.2 3.3-3.9 8.5-15 8.5-18.2 0-3-2-4.9-3.7-3.5-.7.7-1.3 1.6-1.3 2.1s-3 3.8-6.7 7.3c-8.6 8.4-9.8 8.4-18.5.1l-6.8-6.5 1.7-2.9c2.3-4 .6-6.2-4.8-6.2-5.1 0-7.1-2.8-15.3-21-3.5-8-8.5-19.1-11.1-24.7-7.5-16.7-5.2-23.2 5.1-14 6 5.3 14.8 11.8 19 14 7.6 3.9 27.3 9.8 39.7 11.8 11.6 1.9 15.5 2.1 31.7 1.5 10.2-.3 21.3-1.1 24.5-1.6 8.1-1.3 20.8-7.8 40.2-20.7 8.7-5.7 17.4-11.3 19.3-12.3 5.5-2.9 17.7-14.7 22.1-21.4 4-6 10.4-12.6 12.4-12.6.5 0 2.4 1.4 4.2 3.2zm509.3 2c2.2 1.7 5.8 6 8.1 9.5 4.4 6.7 17.3 19.4 22.4 22 1.7.8 10 6.2 18.6 11.9 16.1 10.7 30.5 18.5 37.4 20.3 2.2.5 12.6 1.5 23 2.2 16.5 1 20.4 1 29-.4 5.5-.9 12.2-1.9 14.9-2.2 5-.7 25.6-7.4 31-10.2 5.2-2.6 15.9-10.4 20.7-15 5.8-5.6 8.3-5.5 8.7.3.3 4.3-.3 5.8-14.6 37.3-9.4 20.6-10.8 22.7-15.1 22.3-2.1-.2-4 .3-5.2 1.4-2.3 2.1-2.4 3.2-.2 5.6 1.5 1.7 1.5 2-.8 4.6-1.3 1.5-3 3.1-3.8 3.6-.7.5-3.1 2.4-5.1 4.2-2.1 1.9-4.5 3.4-5.4 3.4-1.7 0-15.9-13.5-16.7-15.9-.9-2.5-3.9-.4-3.9 2.6 0 3.3 4.9 13.9 8.7 19l2.7 3.5-2.9 2.4c-1.7 1.3-5.4 3.3-8.3 4.4l-5.4 2-4.8-2.6c-4.7-2.5-8.9-7.4-12.4-14.2-1.3-2.6-1.7-5.5-1.5-13.1.1-5.3-.1-10.3-.5-10.9-1.2-2-3.3-1.4-6 1.8-3.7 4.5-4.9 9.5-4.4 19.1.3 7.1.9 9.5 4 15.9 2 4.1 3.5 7.6 3.4 7.7-.2.2-2.6-.1-5.6-.7-5.1-1-11.2-5-13.4-8.9-.5-.9-2.3-3.4-4.1-5.6-4.1-5.3-5.5-8.7-6.6-16.2-.8-5.4-.6-7.3 1.7-14.3 2.6-8.3 2.5-10-.5-10-3.2 0-6.9 3.9-10.3 10.8-3.1 6.3-3.3 7.2-3.3 17.7.1 9.3.4 11.8 2.4 16.3 1.3 2.9 2.2 5.4 2 5.7-1.2 1.2-8.3-1.7-12.4-5.1-5.6-4.5-9-10.8-10.6-19.5-1.5-8.3.6-19.5 5.1-26.7 3.3-5.5 3.8-8 1.5-8.8-1.6-.6-5.8 2.2-11.8 7.8-6.7 6.3-12.2 30.7-9.3 40.8l.8 2.5-1.9-2.5c-1-1.4-4.2-4.8-7-7.6-7.1-7.2-9.5-13.8-9.5-26.9-.1-9.6.1-10.3 3.5-17.1 2-3.9 3.8-8.2 3.9-9.5.5-4-4-2.5-9.8 3.2-6.5 6.4-9 11.5-10.4 20.9-2.2 14.3-1.8 14-7.6 6.5l-3.9-5v-11c0-6.5.5-12.5 1.3-14.7.8-2.2 4.5-6.9 9.3-11.6 9.5-9.6 10.1-11.7 3-11-8 .8-21 11.8-28.1 23.8-1.2 2-1.7 1.2-3.7-6.1l-1.7-6.5 3.9-6.5c3.8-6.3 9.3-13.7 12.8-17.1.9-1 3-1.8 4.5-1.8 5.5 0 7-4.2 2.1-5.9-5.8-2-10.3-1.4-15.5 2.2-8.1 5.5-7.6 5.5-6.8.1.9-6.2 3.5-12.3 6.3-14.8 1.1-1.1 2.1-2.6 2.1-3.5 0-1.3 6.7-9.1 7.8-9.1.2 0 2.1 1.4 4.2 3.2zM423 613c1.1.6 3.1 2.7 4.5 4.8l2.5 3.7-2.2.5c-3.5.9-3.2 2.7 1 6.9 2.2 2.1 4.6 5.6 5.2 7.7 1.4 4.3 2.6 31.4 1.5 31.4-.4 0-2.7-2.3-5.2-5-6.1-6.8-15.3-11.5-15.3-7.8 0 .7 1.1 3.1 2.4 5.3 6.6 10.9 7.7 13.1 9.7 19.5l2.3 6.9-3.2 6.9c-1.8 3.8-3.2 7.4-3.2 8 0 2.7-1.7.9-3.3-3.6-2.3-6.4-10-15.2-13.3-15.2-3.7 0-3.9 2.4-1 9.4 5.2 12.2 6.7 24.5 4.6 39-1.2 8.2-3.8 17.6-4.9 17.6-.5 0-1.1-2.7-1.4-5.9-1.9-17.7-9.3-33.1-15.9-33.1-2.3 0-2.4 6-.2 12.1 2.1 5.8 2.9 20.6 1.6 29.7-1.5 10.1-6.7 24.4-10.8 28.9l-3.3 3.8-.1-9.5c0-5.2-.7-12.5-1.5-16.3-2.3-11.1-11.8-26.7-14.6-24-1 1-.9 2.7.1 8.5 3.4 18.2 2.6 40.2-1.8 50.1-1.3 2.9-3.6 5.7-6.4 7.7-4.9 3.6-9.8 6.3-10.4 5.8-.2-.2.8-4.4 2.2-9.3 2.3-8.5 2.4-9.6 1.4-19.5-1.2-12-4-19.3-7.7-19.8-1.4-.2-2.3.2-2.3 1-.3 23.8-.6 26-4.9 37.7-5.2 14.4-6.4 16.4-12.7 21.1-3.9 2.9-6.9 4.2-12.5 5.4-4 .8-7.5 1.4-7.7 1.2-.1-.2.6-2.3 1.7-4.7 1.1-2.4 3.9-9.5 6.2-15.7 3.7-10.2 4.1-12 3.6-17.8-.5-6.5-2.9-11.8-5-11.1-.7.2-1.6 3.2-2 6.6-1.4 11.1-18.7 42.7-24.5 44.5-2 .7-26.9-1.8-27.8-2.7-.3-.3.8-2.3 2.5-4.4 1.6-2.1 5.3-7.6 8.1-12.2 5.5-9.2 6.6-15.5 3.4-18.2-1.4-1.2-1.9-1-3.3.9-.9 1.3-3.4 4.7-5.6 7.5-2.3 2.9-6 8-8.3 11.3-2.3 3.6-6.1 7.5-8.8 9.3-5.1 3.4-6.9 3.4-16.4.6-2.5-.8-6-1.7-7.7-2-3.8-.8-4.1-1.5-1.4-3.2 3.4-2.2 8.3-10.1 7.9-13.1-.5-4.6-3.5-4-9.7 2.2-3.1 3-7.6 6.4-10.2 7.5-4.2 1.9-4.8 1.9-9.5.5-2.7-.8-7.4-1.8-10.4-2.2-5.3-.7-5.5-.8-5.8-3.9-.5-4.6-3-4.9-9.9-1.4-5.6 2.8-6.2 2.9-13.3 2.1-4.1-.5-7.8-.9-8.2-1-.5 0-.8-.8-.8-1.8 0-5.2-7.6-5.8-14.1-1-4.2 3-4.8 3.1-17.4 3.8-7.1.4-14.3 1.2-15.8 1.8-3.8 1.6-4.3-.1-2.3-7.1 2.1-7.3 6.2-12.6 14-18.2 3.6-2.6 6.6-5 6.6-5.5 0-1 10.1-5.4 16.8-7.4 13.8-4 28.6-5.6 57.2-6.2 32.1-.6 42.8-2.1 77-10.4 30.5-7.5 46.1-12.3 53.2-16.3 2.3-1.4 7.2-3.7 10.7-5.2 8.3-3.4 15.5-8.3 29.9-20.5 27.4-22.9 38.7-38.4 52.9-72.5 2.8-6.6 5.4-13.8 5.8-16 .8-4.7 3.1-9.5 4.6-9.5.6 0 1.9.5 2.9 1zm368.9 6.5c1.2 3.1 2.1 6.4 2.1 7.3 0 1.6 5.6 15.6 12.3 30.7 4.6 10.5 19.2 30.7 28.8 40.2 9.6 9.4 25.4 22.8 33.3 28.2 6.8 4.7 30.5 15.6 42.3 19.4 14 4.6 58 15.3 70.8 17.2 5.7.9 22.9 2 40 2.5 37.5 1.1 56.7 4 68.7 10.1 4.9 2.5 17.4 12.5 21.6 17.3 3 3.4 6.2 11.7 6.2 15.9 0 1.6-.5 1.8-2.7 1.2-1.6-.4-8.9-1.2-16.4-1.8-12.2-1.1-14-1.5-17.5-3.9-5.4-3.8-9.9-4.6-12.4-2.3-1.1 1-2 2.8-2 4 0 2-.6 2.3-7.5 2.9-7 .6-7.8.5-13.5-2.4-8.1-4.1-10.5-3.8-10.4 1.2.1 3.6 0 3.8-3 3.9-1.7 0-6.2.8-10.1 1.8-6.8 1.8-7.1 1.8-12 0-2.9-1.1-6.8-3.6-9-6-5.5-5.7-9-8-10.9-7.3-4 1.5-.1 10.4 7.3 16.7l3.2 2.6-2.8.7c-1.5.3-5 1.2-7.8 1.9-11.9 3.2-13 3.1-19-1.4-3-2.3-7.3-6.9-9.6-10.4-2.3-3.4-5.7-7.8-7.5-9.7-1.8-1.9-3.7-4.7-4.3-6.3-1.4-3.6-4.8-3.7-5.7-.1-1.5 5.9 2.1 13.9 12.8 28.2 2.6 3.5 3.5 5.4 2.6 5.7-1.7.5-21 2.5-24.8 2.5-4.8 0-10.2-6.7-19-24.2-6.5-12.7-8.1-16.9-8.7-21.8-.5-4.7-.9-6-2.3-6-2.3 0-4.1 4.4-4.7 11.5-.5 5.2 0 7.2 3 15 1.9 4.9 3.8 10.1 4.2 11.5.4 1.4 1.8 4.6 3.1 7.2 2.8 5.5 2.8 5.5-6.7 3.5-4.1-.9-7.3-2.5-11.8-5.9-6.8-5.3-7.8-6.9-13.3-21.7-3.7-10-3.9-11.3-4.3-23.8-.3-13.5-.7-15.3-2.9-15.3-3.8 0-7.5 12.1-7.8 25.5-.1 7 .3 10.6 2.1 16.3 1.3 4 2.1 7.6 1.7 7.9-.3.3-3.5-1.4-7.1-3.7-7.9-5.1-10.9-10.2-12.6-20.9-1.3-8.5-.7-29.8 1.1-39.8.8-4 1.1-7.6.8-7.9-2.6-2.6-11.3 9.6-14.4 20.3-1 3.2-2 11.2-2.3 17.8l-.6 12-3.2-4.3c-4.1-5.5-9.1-19.4-10.4-29.1-1.3-9-.5-22.7 1.7-29.3 1.7-5.4 1.5-11.9-.4-12.6-.7-.2-3.3 1.6-5.6 4-3.6 3.8-4.6 5.9-6.9 14.2-1.5 5.4-3 12.4-3.4 15.7-.7 7.3-1.8 6.6-4.3-3-4.3-16.2-3.4-34.2 2.2-46.9 1.5-3.5 2.8-7.2 2.8-8.2 0-2.1-2.9-3.4-5.4-2.4-2.3.9-10.2 11.7-11.6 15.9-.6 1.9-1.5 3.5-1.8 3.5-.4 0-2.2-3.6-4-8l-3.4-8 2.7-7.7c1.5-4.3 4-9.8 5.6-12.3 7.1-11 7.2-14.7.3-11.2-3.8 1.9-13.4 10.8-13.4 12.4 0 .4-.4.8-1 .8-1.6 0-1.2-21.2.5-28.9 1.3-5.5 2.3-7.5 5.5-10.6 4.4-4.3 5.1-6.5 2-6.5-1.2 0-2-.7-2-1.6 0-2.1 7.3-9.4 9.3-9.4 1 0 2.3 2.1 3.6 5.5zM427.2 723.7c-.7 6.5-1.2 6.7-1.2.5 0-2.9.4-5.2.9-5.2s.6 2.1.3 4.7zm354.7 3.5c-.1 5.5-.5 5-1.1-1.5-.2-2 0-3.7.4-3.7s.7 2.4.7 5.2zm-164.6 90.4c3.9 4.2 7.5 8.7 7.9 10.1.3 1.3 1.8 3.3 3.2 4.4 5.4 4.2 26.8 37.9 24.2 37.9-.3 0-2.5-3-5.1-6.6-2.6-3.6-6.1-7.4-7.9-8.5-2.9-1.8-9.6-2.6-10.9-1.3-.3.3 1.2 2.8 3.3 5.5 6.1 7.8 13.7 21.8 18 33.4 2.2 5.9 4 11 4 11.3 0 .3-1.6-1.3-3.6-3.6-2.4-2.8-4.4-4.2-6-4.2-3.1 0-3.1 1.5.2 11 3 9 4.3 18.4 4.6 34.7.3 13.1-.8 17.1-3.2 11.3-1.5-3.6-5.6-7.1-7.5-6.4-2.4 1-2.5 3.2-.5 12.6 2 9.4 2.5 19.2 1.3 26.1-.5 3.1-.9 3.8-2.5 3.4-2.7-.7-3.4 1.6-4.2 12.8-.6 10.1-3.6 27.9-5.7 34.4-3.4 10.2-17.1 35.2-18.5 33.8-.3-.3-.1-4 .5-8.2 2.1-15.1 1.2-40.5-2.6-72.3-2.1-17.6-.2-32.9 5.6-45.7 3.9-8.6 4.4-11.1 2.5-12.9-2.1-2.1-4-1-9.8 5.6-2.6 3-4.3 4.3-4.1 3.2 2.3-9.9 4.1-16.4 7.1-24.8 3.2-8.8 3.4-10 2.1-11.3-1.4-1.4-1.9-1.4-4.9.3-1.8 1.1-4.9 4.3-6.8 7.2-1.9 2.9-3.6 4.9-3.8 4.4-.1-.4.9-4.8 2.3-9.8 2.4-8 6.8-17.4 10-21.4 3.3-3.9 5.4-9.3 4.4-11.2-3.2-6-16 4.6-23.3 19.6-2.5 5-4.6 8.8-4.6 8.3 0-1.8 6.4-23.5 7.8-26.2.8-1.7 3.6-6.2 6.2-10 2.6-3.9 5.5-8.5 6.4-10.3 6.5-12.6-12.4-3.7-21.4 10.1-4.5 7-4.9 6.3-2-4.1 3-10.8 7.9-19.7 17.4-31.6 3.3-4.1 2.9-6.6-1.1-6.6-7.4 0-18.9 10.3-25.9 23.2-3.6 6.8-4 6.6-2.3-1.4 2.5-11.7 11-23.3 20.9-28.3 4.6-2.3 14.6-5.1 19.3-5.4.9-.1 5 3.3 9 7.5z"/><path d="M581.6 118.9c-3.2 6-1 8.3 3.4 3.6 1.9-2 2.2-3 1.4-4.2-1.7-2.8-3.2-2.6-4.8.6zm-1.5 17c-1.4 2.5-.3 5.3 1.8 4.9 1-.2 1.6-1.3 1.6-3.2 0-3.5-2-4.5-3.4-1.7zm188.6 17.7c-.4.4-.7 2.2-.7 4.1 0 3.9 2.3 5.4 4.8 3 1.2-1.3 1.4-2.3.6-4.4-.9-2.7-3.3-4.1-4.7-2.7zM578 158c-4.9 5.3-6.7 8.7-5.3 10.1 1.6 1.6 4.8-.5 8.3-5.3 3-4.1 4-8.8 1.8-8.8-.6 0-2.8 1.8-4.8 4zm201.6 7.8c-.4.7-.2 1.2.4 1.2.8 0 .9.7.5 1.7-1.2 2.9-3.4 15.5-3.4 20.1-.1 4.6 1.8 6.4 4.3 4.2 1.7-1.3 4.6-13.2 4.6-18.4 0-4-5.1-10.9-6.4-8.8zM576 181c-4.6 4.3-8.1 8.2-7.7 8.6 3 3 19.2-9 18.5-13.7-.2-1.2-.7-2.4-1.3-2.5-.5-.2-4.8 3.3-9.5 7.6zm-15.7 22.5c-5.3 2.3-12.4 7.5-13.3 9.8-.5 1.2-1.2 4-1.6 6.2l-.8 4-.5-4-.6-4-3.7 5c-2.1 2.7-3.8 5.8-3.8 6.8s-.9 3.5-2 5.7c-2.9 5.6-2.7 9.8.5 10.6 3.4.8 5.5-.1 5.5-2.5 0-2.6 1.7-6.3 7.4-16 5.7-9.5 8.6-12.1 19-17.4 4.2-2.1 7.6-4.3 7.6-4.8 0-1.4-10.1-1-13.7.6zm-16.6 22.7c-.3.8-.6.5-.6-.6-.1-1.1.2-1.7.5-1.3.3.3.4 1.2.1 1.9zm68.6-21.8c.2.6 2.8 2.1 5.8 3.3 10.2 4.1 26.4 19.9 32.4 31.7 1.8 3.3 3.8 6.1 4.6 6.1 2.3 0 4-4.6 3.4-9.4-.8-6.5-4.5-12-12.6-18.9-9.5-8.1-20.5-13.5-28.2-13.7-3.8-.2-5.7.2-5.4.9zm-28.4 28.4c-4.7 2.2-9 7.3-12.4 14.6-5.6 12.2-7.5 20.5-8.7 37.7-1.2 16.5-.7 22.1 4.3 41.5 3.3 13.3 12.4 28.6 19 32 3 1.5 7.1 1.9 8.3.7.4-.4 2.4-.6 4.4-.5 2 .1 4.4-.4 5.3-1 4.5-3.6 11.2-20.1 17.9-44.3 2.5-8.9 2.9-12.1 2.4-17-1-10.9-5.4-28.7-8.9-36.2-5-10.9-13.9-23.9-17.5-25.8-3.5-1.8-11.7-2.8-14.1-1.7zm106.5 87.6c-7.1 6-32.4 44.4-32.4 49 0 2.2 2.6 3.1 5.3 1.9 2.3-1.1 26.3-35.4 30.3-43.3 1.2-2.5 2.6-6 2.9-7.8.9-4.3-.9-4.2-6.1.2zm-183.8 22.1c-.8 2.1 2.8 12.2 8.1 22.9 2.4 4.8 4.2 9.5 3.8 10.3-.7 2 1.2 4.3 3.5 4.3 2.5 0 4.1-2.3 4.7-6.9.5-3.4-.2-5.3-4.7-13.8-2.9-5.3-6.5-11.7-8.2-14-3-4.4-6.1-5.6-7.2-2.8zm-21.3 3.1c-.8 2.3 4.5 12.5 10.7 20.7 2.7 3.4 5 7.3 5.2 8.7.2 1.9 1 2.6 3.2 2.8 4.3.5 5.1-.9 3.2-6.5-1.8-5.5-17.3-26.6-19.9-27.1-.9-.2-2 .4-2.4 1.4zM605 451.1c0 1.8 9.8 21.5 30.5 61.5 2.9 5.5 6.4 11.3 7.9 12.8 1.4 1.6 2.6 3.5 2.6 4.2 0 .8.8 2.3 1.8 3.3.9 1.1 2.5 3.1 3.6 4.6 1.3 1.9 2.1 2.4 2.9 1.6.7-.7.2-2.8-1.6-6.8-1.4-3.2-3.3-8.8-4.1-12.5-.9-3.7-3.8-12-6.5-18.5s-6.8-17.6-9.1-24.6c-4-12.2-4.4-13-7.6-14.3-2.2-.9-4.1-2.8-5.4-5.3-2.5-5-4.3-6.3-3.4-2.4.6 2.6.5 2.6-3-1.5-4.2-4.7-8.6-5.8-8.6-2.1zm-30.3 5.1c-1.3 1.8-4.3 6.8-6.7 11-2.4 4.2-5.1 7.9-6.1 8.1-1.1.3-2.3 1.7-2.9 3.3-.6 1.5-2.6 5.2-4.5 8.3-1.9 3.1-4.7 9-6.4 13.2-1.6 4.2-5.1 11.4-7.7 16-2.6 4.6-5.3 9.6-6.1 11.1-.8 1.5-1.9 3-2.4 3.3-1.7 1.1-4.1 6.7-3.5 8.2.6 1.4.8 1.4 2.4-.1 1.4-1.2 2.1-1.3 3-.4 2 2 6.5-3.5 12.5-15.2 3-5.8 5.9-10.4 6.5-10.3 1.2.3 6.5-5.7 5.8-6.5-.3-.3-1.2.1-2 .7-.8.7 3.1-6.3 8.6-15.6 13-21.9 17.8-30.6 17.8-32.6 0-1.8-3.4-5.7-4.9-5.7-.6 0-2.1 1.5-3.4 3.2zm-35.2 19.4c-.9.9-3 4.4-4.7 7.8-2.3 4.7-6.3 9.3-17.4 20.2-9.9 9.7-14.2 14.6-13.8 15.7.4 1-.9 2.5-4.1 4.7-4.9 3.4-7.5 7.8-5.4 9.1.7.4 3.1 1 5.4 1.4 4.8.7 13.4-2.2 17.3-5.7 1.2-1.2 2.2-1.8 2.2-1.3s2.8-3.6 6.1-9c3.4-5.5 8.2-13.2 10.8-17 3.9-5.8 8.3-14.5 10.9-21.5.3-.8-1.1 0-2.9 1.7-1.9 1.8-4 3.3-4.6 3.3-2.4 0-2.4-2.2.1-5.1 3.6-4.2 3.7-7.8.1-4.3zm-13.1 33.9c-.4.8-1 1.2-1.5.9-1.1-.6-.2-2.4 1.1-2.4.5 0 .7.7.4 1.5zM755.2 481c-10.3 4.7-14.6 11.1-7.9 11.8 1.5.2 2.5.7 2.2 1.2-.3.5-.1 1.9.5 3 1.3 2.4 4.9 2.6 9.6.4 5.1-2.4 13.4-10.6 13.4-13.2 0-2.3-2-2.2-5 .4-2.3 1.9-4.4.2-3.6-3 .6-2.3.4-2.6-2.1-2.6-1.6 0-4.7.9-7.1 2zm-102.9 11c.3 1.4.9 4.5 1.3 7 .7 4.7 3.2 10 4.7 10 .5 0 .4.7-.3 1.5s-1.7 1.2-2.3.8c-1.4-.9-.2 4.8 2.2 10.2 2.2 5 4.3 6.6 14.3 10.6 7.1 2.9 13 3.3 16.7 1 2.1-1.3-.5-5.7-5.4-9.1-3.2-2.2-4.4-3.7-4-4.8.3-1.3-3.6-5.8-13.6-15.7-10.2-10.1-14-13.3-13.6-11.5zm-16.6 41.7c-1.4 1.4-.6 5.7 2.4 12.6 1.7 4 4 8.1 5 9.3 1.1 1.1 1.9 2.8 1.9 3.7 0 .9.4 1.7.9 1.7 1.2 0 3.1-5.5 3.1-8.9 0-2.9-5.2-14.6-7.7-17.4-1.6-1.7-4.4-2.3-5.6-1zm-93.1 7.6c-5.4 8.2-12 30.6-11.4 38.5.3 2.9.1 5.5-.4 5.8-1.1.7-1 2.4.2 2.4.6 0 1.4-.8 1.7-1.8.4-.9 1.4-2.7 2.4-4 1-1.3 2.5-4.9 3.4-8 .9-3.1 3.4-11.7 5.6-19 2.3-7.3 3.8-14 3.5-14.8-.8-2.1-3.4-1.7-5 .9zm5.7 69.4c-9.3 9.7-12 14.6-12.1 21.6 0 2.7-.7 5.9-1.7 7.3-1.9 3-1.2 4.4 1.3 2.6.9-.6 3.1-1.8 4.8-2.6 4-1.8 6.4-4.4 12.5-13.4 2.9-4.4 4.9-8.5 4.9-10.1 0-1.5.7-3.6 1.5-4.7 2.6-3.4 1.4-9.4-1.9-9.4-.6 0-4.8 3.9-9.3 8.7zm-.1 29.9c-1.2.8-4.5 4.9-7.2 8.9-7.2 10.6-6.8 18.2.7 13 2.4-1.7 10.7-14.6 11.8-18.3.4-1.3.2-2.9-.5-3.7-1.6-1.9-2-1.9-4.8.1zm-11.2 32c-5.2 8-6 11.6-2.7 12.2 4.1.8 12.2-10.9 11.5-16.6-.6-5.2-3.4-3.7-8.8 4.4z"/></svg>