<?xml version="1.0" standalone="no"?>
<!DOCTYPE svg PUBLIC "-//W3C//DTD SVG 20010904//EN"
 "http://www.w3.org/TR/2001/REC-SVG-20010904/DTD/svg10.dtd">
<svg version="1.0" xmlns="http://www.w3.org/2000/svg"
 width="1206.000000pt" height="1206.000000pt" viewBox="0 0 1206.000000 1206.000000"
 preserveAspectRatio="xMidYMid meet">
<metadata>
Created by potrace 1.14, written by Peter Selinger 2001-2017
</metadata>
<g transform="translate(0.000000,1206.000000) scale(0.100000,-0.100000)"
fill="#000000" stroke="none">
<path d="M5540 11785 c-130 -26 -305 -83 -348 -113 -15 -11 -64 -27 -110 -36
-102 -20 -309 -94 -422 -151 -90 -46 -297 -175 -362 -227 -22 -17 -106 -104
-187 -193 -133 -145 -153 -173 -213 -286 -36 -68 -78 -153 -93 -189 -15 -36
-56 -126 -90 -200 -34 -74 -67 -148 -73 -165 -24 -65 -53 -196 -72 -325 -31
-209 -59 -330 -81 -354 -5 -6 -9 -27 -9 -47 0 -20 -9 -79 -20 -132 -10 -52
-24 -155 -30 -228 -13 -161 -44 -403 -67 -517 -15 -79 -18 -85 -50 -100 -38
-18 -78 -82 -68 -111 3 -9 -10 -55 -29 -102 -19 -47 -44 -122 -56 -167 -28
-112 -48 -152 -76 -152 -29 0 -149 -94 -162 -128 -6 -15 -13 -86 -17 -158 -3
-73 -12 -173 -21 -224 -11 -72 -12 -110 -5 -169 6 -42 16 -134 22 -205 17
-201 41 -242 269 -466 153 -150 159 -157 166 -205 9 -61 -3 -108 -58 -234 -51
-116 -104 -194 -166 -244 -93 -75 -223 -143 -367 -191 -256 -85 -294 -91 -525
-77 -170 10 -222 22 -350 80 -25 11 -55 21 -67 21 -11 0 -67 23 -122 51 -144
71 -195 126 -276 294 -57 119 -115 255 -145 345 -6 19 -14 82 -17 139 -5 83
-10 108 -25 123 -10 10 -25 18 -33 18 -41 0 -176 -174 -211 -273 -27 -77 -77
-271 -90 -352 -16 -97 -18 -292 -4 -366 17 -90 111 -329 155 -394 23 -33 44
-67 47 -77 16 -40 111 -181 184 -273 83 -103 213 -232 310 -307 l55 -43 -28
-7 c-15 -3 -62 -11 -104 -17 -220 -30 -569 -140 -661 -209 -131 -96 -234 -180
-308 -250 -94 -88 -209 -247 -238 -328 -9 -27 -27 -65 -38 -84 -12 -19 -34
-66 -49 -105 -14 -38 -37 -97 -50 -130 -13 -33 -39 -128 -59 -211 -33 -140
-35 -154 -22 -185 15 -37 39 -62 69 -72 35 -13 107 43 140 109 25 48 180 218
255 277 117 94 334 197 414 197 15 0 68 8 116 19 48 10 130 23 182 29 292 35
260 35 445 3 39 -7 111 -21 160 -32 50 -10 128 -24 175 -30 47 -5 121 -19 165
-29 155 -37 261 -59 340 -70 44 -7 85 -15 92 -19 8 -4 -11 -32 -56 -82 -38
-41 -105 -129 -150 -194 -45 -66 -102 -149 -127 -185 -68 -98 -178 -329 -224
-470 -64 -195 -110 -357 -116 -408 -4 -26 -14 -81 -25 -122 -51 -209 -71 -410
-59 -594 28 -419 80 -717 172 -990 36 -107 43 -119 80 -140 54 -32 80 -10 109
95 16 57 22 122 28 279 8 198 10 212 54 390 97 389 203 576 503 895 197 208
401 395 498 455 40 25 95 61 122 81 64 47 164 100 239 128 33 12 95 40 138 62
43 22 100 44 127 49 27 5 88 32 137 59 48 27 144 71 213 97 139 52 219 91 395
194 66 38 125 70 131 70 6 0 36 11 65 24 53 24 119 72 292 214 102 85 97 86
142 -30 15 -37 40 -86 58 -110 17 -24 52 -87 78 -140 25 -54 64 -128 86 -165
22 -37 52 -91 67 -120 39 -79 112 -344 135 -493 72 -464 78 -543 58 -790 -10
-113 -17 -244 -17 -292 0 -114 -20 -211 -69 -337 -23 -58 -41 -109 -41 -114 0
-5 -25 -72 -55 -149 -56 -142 -60 -169 -26 -188 23 -12 111 48 236 163 189
172 292 315 494 681 86 156 139 270 228 487 63 156 125 320 138 364 57 192
136 743 138 961 l2 150 85 -56 c47 -31 101 -65 120 -76 19 -10 44 -27 55 -36
23 -20 73 -48 195 -111 47 -25 122 -67 168 -95 46 -28 97 -54 115 -57 18 -4
52 -20 77 -36 25 -15 75 -39 110 -53 36 -14 108 -43 160 -66 52 -22 149 -59
214 -81 100 -34 249 -101 381 -172 49 -27 197 -93 247 -111 26 -10 78 -40 115
-68 37 -27 90 -61 116 -75 77 -39 139 -87 204 -160 34 -37 97 -105 140 -149
134 -140 303 -367 349 -470 20 -46 39 -114 120 -449 19 -78 27 -146 34 -305
13 -272 42 -390 96 -390 19 0 63 40 80 71 58 114 152 520 179 776 31 301 36
452 20 579 -24 182 -26 192 -51 302 -13 57 -24 113 -24 125 0 32 -45 189 -111
388 -66 202 -166 412 -255 534 -31 44 -88 126 -126 183 -38 56 -98 133 -134
171 -36 38 -61 71 -57 74 4 2 49 12 98 21 183 35 241 47 302 62 35 8 140 28
235 45 95 16 196 34 223 39 28 5 88 16 135 25 111 20 257 13 495 -26 294 -48
333 -60 478 -141 94 -53 130 -81 224 -174 61 -61 133 -144 158 -183 49 -76 95
-109 136 -96 27 9 36 30 44 105 11 89 8 133 -11 215 -17 71 -105 301 -143 371
-11 22 -34 68 -51 104 -48 102 -120 199 -215 289 -86 81 -246 209 -329 264
-111 73 -511 189 -708 205 l-87 7 66 52 c180 142 369 357 472 538 35 61 71
119 80 130 26 29 26 29 94 202 l62 158 -1 200 -1 200 -41 158 c-48 182 -64
223 -127 317 -44 66 -115 140 -135 140 -6 0 -18 -8 -28 -18 -15 -15 -20 -40
-24 -123 -7 -119 -19 -162 -114 -383 -74 -171 -127 -259 -192 -317 -44 -39
-218 -129 -248 -129 -9 0 -46 -14 -84 -30 -109 -48 -254 -83 -320 -77 -30 2
-79 0 -108 -6 -57 -11 -169 1 -254 27 -298 91 -284 86 -430 168 -138 78 -209
150 -267 271 -60 125 -114 285 -107 318 5 29 -10 99 -23 99 -4 0 -15 6 -25 13
-17 12 -10 25 88 161 188 262 194 277 207 540 14 276 -11 419 -112 656 -45
105 -54 119 -100 153 -27 20 -58 37 -68 37 -10 0 -34 7 -53 15 -27 10 -37 22
-42 45 -4 22 -15 35 -38 45 -18 8 -51 31 -74 52 -37 35 -42 46 -64 143 -12 58
-30 123 -38 145 -10 28 -17 106 -23 260 -7 199 -20 324 -50 476 -5 30 -14 104
-19 166 -5 61 -24 174 -41 250 -17 76 -37 167 -45 203 -7 36 -17 76 -22 90 -5
14 -17 70 -27 125 -54 326 -103 456 -265 705 -73 113 -354 416 -450 486 -249
181 -512 301 -799 363 -81 18 -167 44 -200 60 -82 41 -128 50 -353 66 -244 18
-460 18 -548 0z m705 -269 c148 -28 217 -47 277 -77 23 -12 59 -19 93 -19 62
0 81 -8 264 -114 62 -36 125 -66 138 -66 13 0 39 -11 56 -24 18 -14 50 -33 72
-43 78 -36 187 -110 271 -184 37 -32 72 -59 79 -59 22 0 123 -116 190 -218 82
-125 192 -353 239 -492 19 -57 33 -106 31 -109 -3 -2 -12 2 -21 10 -13 11 -15
11 -13 -2 2 -7 -2 -23 -7 -34 -6 -11 -24 -64 -40 -117 -15 -54 -31 -94 -35
-90 -3 4 -20 49 -38 101 -18 51 -50 135 -73 185 -22 50 -53 125 -70 166 -16
41 -33 79 -38 84 -14 14 -25 -2 -12 -17 7 -8 19 -33 27 -57 26 -75 93 -382
100 -460 3 -41 17 -123 31 -181 22 -96 25 -141 32 -425 5 -176 6 -322 2 -327
-3 -4 -29 -9 -57 -11 -49 -3 -83 -16 -113 -41 -8 -7 -33 -16 -55 -19 -48 -9
-153 -65 -212 -113 -24 -19 -87 -53 -140 -77 -107 -46 -165 -80 -230 -134 -43
-35 -61 -32 -22 4 33 30 138 179 155 221 9 21 18 62 20 91 4 58 8 58 -63 -3
-54 -47 -232 -293 -247 -341 -10 -31 18 -56 48 -44 13 5 26 6 29 4 3 -3 16 1
29 10 12 8 48 18 78 22 61 7 208 50 228 67 9 7 20 6 37 -3 18 -10 28 -10 38
-2 7 6 29 9 48 6 30 -5 48 4 153 75 112 76 120 80 137 65 22 -19 60 -13 98 17
l26 20 7 -27 c9 -35 23 -44 73 -44 40 -1 40 -1 75 -76 19 -42 45 -90 56 -107
l22 -32 -24 -22 c-13 -12 -24 -31 -24 -41 0 -29 -36 -58 -54 -43 -21 18 -46 2
-63 -41 -9 -23 -42 -62 -81 -98 -54 -49 -70 -58 -92 -53 -37 7 -84 -19 -150
-82 -66 -64 -271 -189 -282 -171 -4 6 -12 35 -18 64 -12 53 -34 77 -64 66 -24
-9 -28 -36 -8 -63 17 -25 42 -84 42 -102 0 -20 -96 -69 -135 -69 -23 0 -58 -9
-80 -20 -21 -11 -40 -19 -41 -17 -2 1 1 34 6 72 16 118 12 277 -6 303 -21 30
-41 28 -48 -5 -3 -16 -13 -104 -22 -196 -9 -93 -19 -180 -23 -195 -5 -21 -22
-35 -73 -61 l-67 -33 -83 20 c-46 11 -124 38 -174 60 -50 22 -108 44 -130 48
-55 10 -70 19 -102 67 -26 38 -39 72 -45 117 -1 8 53 66 121 129 67 62 134
133 147 156 32 53 35 116 9 152 -19 26 -19 26 1 87 12 34 38 93 57 132 41 80
106 241 115 285 4 20 0 35 -12 49 -12 13 -15 27 -10 48 5 27 3 31 -25 40 -23
9 -32 8 -35 -1 -33 -94 -62 -162 -137 -322 -50 -104 -106 -217 -126 -249 l-35
-59 26 -19 c46 -34 32 -85 -33 -118 -29 -15 -58 -48 -115 -130 l-77 -111 15
-37 c8 -20 18 -56 22 -79 5 -31 12 -43 24 -43 29 0 61 -30 87 -83 15 -29 42
-69 60 -90 25 -27 33 -44 29 -60 -5 -19 3 -26 52 -52 80 -41 168 -129 182
-181 6 -22 21 -49 32 -60 36 -31 79 -106 79 -136 0 -27 -19 -41 -21 -15 0 6
-5 2 -11 -11 -10 -20 -7 -27 23 -58 43 -45 85 -67 114 -60 15 4 29 -2 45 -19
45 -48 70 -25 46 43 -16 45 -12 50 18 27 26 -19 97 -19 143 0 20 8 55 32 78
53 23 20 50 42 61 49 18 11 18 12 1 30 -17 17 -20 17 -95 -11 -118 -44 -164
-52 -201 -36 -38 15 -181 167 -181 192 0 9 -4 20 -10 23 -11 7 -14 45 -4 45 3
0 51 -40 106 -90 149 -132 159 -135 304 -86 87 29 127 24 140 -17 19 -65 60
-44 162 83 112 139 134 176 127 209 -8 36 12 52 32 25 9 -12 13 -37 11 -67 -2
-35 0 -46 10 -42 20 7 15 -3 -43 -87 -46 -66 -51 -78 -32 -72 53 16 132 95
198 196 22 35 47 66 54 71 22 12 48 113 41 158 -5 32 -3 40 14 49 17 9 20 21
20 80 0 71 -9 86 -43 68 -13 -7 -20 -3 -29 17 -9 20 -8 37 7 87 22 76 33 91
59 84 22 -6 53 23 74 68 7 15 18 26 25 23 18 -6 10 -48 -13 -69 -24 -22 -25
-46 -5 -112 34 -112 47 -228 42 -361 -3 -72 -11 -143 -16 -158 -20 -51 14 -26
68 52 20 28 22 42 18 90 -6 67 -44 283 -57 326 -5 17 -11 62 -12 100 -3 69 -3
70 23 73 30 3 45 -16 74 -93 32 -88 96 -216 105 -210 4 3 6 -3 3 -14 -3 -12 5
-25 25 -40 17 -12 36 -38 43 -59 6 -20 18 -45 26 -54 26 -30 159 -78 231 -85
37 -3 77 -12 89 -19 31 -20 37 -68 19 -157 -9 -42 -16 -86 -16 -99 l1 -23 19
24 c11 13 20 29 20 36 0 7 6 18 14 24 10 8 5 -32 -19 -149 -19 -89 -38 -175
-44 -192 -14 -40 -295 -311 -330 -318 -19 -4 -25 -11 -24 -25 2 -11 -14 -40
-36 -65 l-39 -44 -58 18 c-33 10 -105 38 -161 62 -84 36 -114 44 -164 44 -79
0 -250 -35 -302 -62 -55 -28 -88 -37 -174 -48 -159 -21 -423 -172 -423 -242 0
-11 -13 -37 -28 -57 -79 -102 -133 -219 -170 -371 -22 -89 -46 -276 -40 -305
3 -17 73 138 108 240 11 33 36 83 55 112 19 28 46 80 61 115 27 64 81 155 118
196 20 23 105 66 113 58 3 -2 -8 -24 -23 -48 -50 -79 -185 -372 -204 -443 -29
-109 -34 -157 -16 -180 23 -31 45 -10 70 70 29 91 153 338 221 440 76 115 170
213 229 241 28 13 52 21 55 19 2 -3 -17 -27 -42 -54 -101 -108 -213 -303 -257
-450 -32 -104 -11 -122 35 -30 14 27 53 84 88 126 34 43 88 112 119 153 57 76
156 178 145 150 -3 -8 -29 -68 -58 -134 -117 -267 -128 -523 -33 -791 25 -71
60 -175 78 -230 35 -108 201 -441 284 -569 61 -95 298 -354 547 -596 39 -38
310 -240 321 -240 4 0 77 -39 163 -87 86 -48 183 -101 216 -118 65 -34 280
-241 338 -325 17 -25 45 -63 62 -85 54 -68 90 -135 142 -265 67 -166 111 -311
134 -439 10 -59 27 -155 39 -216 28 -153 27 -226 -3 -261 -15 -17 -30 -25 -39
-21 -8 3 -32 35 -52 70 -30 54 -36 75 -36 124 0 152 -54 485 -91 560 -13 27
-32 50 -42 51 -17 4 -18 -2 -12 -80 3 -45 12 -137 20 -203 19 -160 25 -247 17
-243 -20 9 -157 81 -160 83 -2 2 -10 47 -18 101 -8 55 -22 126 -30 159 -22 83
-123 323 -178 420 -62 111 -69 120 -90 112 -14 -6 -17 -15 -13 -45 5 -36 105
-331 125 -369 12 -22 63 -216 58 -220 -2 -2 -21 11 -43 29 -32 26 -45 46 -59
92 -10 33 -42 96 -70 140 -29 45 -72 113 -97 151 -25 39 -60 99 -77 135 -18
36 -43 79 -56 95 -12 17 -46 75 -76 130 -40 75 -58 100 -73 100 -27 0 -30 -31
-11 -119 10 -44 33 -100 57 -142 22 -38 52 -96 65 -129 13 -33 40 -85 58 -115
19 -30 45 -78 60 -107 l26 -52 -75 48 c-61 39 -83 60 -123 122 -27 41 -70 98
-95 127 -25 28 -51 62 -58 74 -6 13 -35 52 -64 88 -58 71 -124 175 -184 290
-51 99 -73 125 -96 116 -16 -6 -17 -15 -11 -83 5 -64 15 -97 61 -197 31 -67
79 -153 108 -193 60 -83 138 -203 133 -203 -24 0 -119 48 -130 65 -9 13 -67
69 -130 124 -177 156 -270 306 -355 576 -47 148 -53 160 -75 152 -27 -10 -22
-181 8 -298 42 -163 127 -338 214 -439 39 -47 40 -51 3 -37 -18 6 -35 24 -45
46 -9 22 -35 49 -65 69 -133 90 -320 415 -367 636 -8 39 -24 132 -35 206 -23
152 -39 180 -75 126 -22 -35 -29 -186 -15 -319 17 -152 69 -316 143 -452 34
-60 63 -114 66 -120 10 -19 -184 181 -233 240 -56 68 -184 299 -215 390 -41
119 -119 402 -135 493 -18 95 -31 116 -60 92 -51 -42 23 -556 109 -755 l26
-60 -55 60 c-72 79 -181 235 -216 310 -63 133 -95 289 -119 574 -6 69 -12 127
-15 129 -2 2 -11 2 -19 -1 -29 -11 -39 -87 -38 -282 1 -152 5 -209 21 -284 21
-97 58 -201 93 -260 36 -63 -9 -14 -89 98 -143 199 -177 284 -202 511 -6 58
-17 142 -23 188 -6 48 -7 120 -3 169 6 79 6 85 -12 81 -32 -6 -73 -168 -73
-291 0 -41 -4 -57 -12 -55 -14 5 -19 16 -48 102 -20 59 -22 81 -16 155 3 47
19 140 35 206 38 155 42 183 32 190 -14 8 -66 -57 -87 -108 -10 -26 -22 -47
-26 -47 -13 0 -21 135 -9 175 54 192 65 245 54 256 -9 9 -18 8 -38 -5 -24 -16
-33 -31 -60 -101 -4 -12 -9 -15 -12 -8 -2 6 2 24 10 40 8 15 17 46 21 68 4 22
16 82 28 133 16 73 18 98 10 118 -17 35 -49 31 -73 -11 -12 -19 -22 -35 -24
-35 -2 0 -1 36 2 79 3 44 0 165 -6 271 -11 172 -11 193 3 215 9 14 21 25 26
25 5 0 19 -27 31 -60 24 -67 61 -110 94 -110 12 0 34 -9 48 -20 14 -11 32 -20
40 -20 8 0 24 -16 36 -35 20 -34 44 -45 56 -25 4 6 -5 41 -18 78 -14 37 -50
144 -80 237 -31 94 -106 303 -166 465 -64 169 -111 309 -111 330 0 23 -3 31
-9 21 -6 -10 -12 -3 -21 25 -7 22 -17 45 -23 52 -13 17 -52 15 -67 -3 -12 -14
-15 -14 -31 1 -25 23 -42 13 -58 -32 -7 -22 -37 -86 -66 -144 -56 -112 -202
-499 -280 -740 -25 -80 -58 -175 -71 -212 -14 -37 -23 -72 -19 -78 12 -20 36
-9 56 25 12 19 29 35 38 35 10 0 28 9 41 20 13 11 33 20 45 20 27 0 45 18 45
46 0 13 10 31 23 41 12 10 29 33 36 51 15 37 18 38 43 15 11 -10 18 -30 18
-51 0 -19 9 -49 20 -66 31 -51 51 -240 48 -456 -2 -149 -6 -184 -17 -182 -18
4 -41 -17 -41 -38 0 -9 10 -30 21 -44 l22 -28 -21 -131 c-12 -73 -24 -168 -28
-212 -3 -44 -8 -83 -11 -88 -2 -4 -17 16 -31 45 -16 31 -35 54 -46 57 -17 3
-18 -1 -12 -35 4 -22 10 -111 12 -199 5 -155 5 -162 -22 -235 -31 -88 -93
-215 -122 -250 -16 -20 -23 -22 -33 -13 -10 10 -9 28 4 88 25 112 22 155 -15
233 l-32 67 -3 -40 c-14 -181 -59 -340 -200 -695 -25 -62 -112 -205 -120 -196
-2 2 8 59 22 127 35 172 52 378 37 435 -7 24 -12 52 -12 62 0 10 -6 27 -14 37
-24 33 -43 3 -61 -98 -15 -84 -82 -324 -134 -487 -12 -36 -43 -104 -69 -152
-40 -71 -67 -105 -165 -198 -108 -103 -138 -125 -103 -75 25 37 86 258 97 354
13 108 7 297 -10 329 -12 22 -45 30 -55 14 -3 -5 -14 -69 -25 -143 -41 -274
-80 -387 -202 -592 -71 -118 -136 -194 -234 -272 -65 -51 -69 -49 -25 15 120
177 190 385 190 566 0 104 -9 130 -35 103 -7 -8 -32 -75 -55 -149 -70 -223
-165 -396 -278 -503 -210 -201 -229 -216 -280 -236 -29 -12 -55 -21 -57 -21
-3 0 11 21 30 46 19 25 35 49 35 53 0 4 27 46 61 92 69 94 151 261 168 339 16
75 14 129 -5 137 -21 8 -36 -9 -87 -102 -80 -145 -111 -196 -167 -268 -31 -40
-71 -94 -89 -120 -18 -27 -52 -70 -76 -97 -23 -26 -59 -75 -80 -109 -27 -43
-53 -70 -89 -92 -28 -18 -62 -39 -75 -47 -24 -17 -24 -16 75 168 13 25 37 74
54 110 16 36 45 95 64 131 40 74 68 201 49 220 -20 20 -41 2 -80 -71 -21 -39
-60 -106 -86 -148 -27 -42 -59 -101 -73 -130 -13 -30 -37 -70 -52 -90 -16 -20
-40 -57 -52 -82 -12 -25 -35 -61 -50 -80 -34 -44 -65 -104 -79 -155 -7 -27
-25 -51 -52 -74 -22 -18 -42 -31 -44 -29 -8 7 51 197 115 373 68 188 78 228
60 250 -16 19 -46 4 -55 -27 -4 -13 -25 -54 -47 -92 -91 -156 -172 -379 -199
-549 -18 -118 -18 -118 -68 -175 -27 -31 -65 -73 -85 -91 l-36 -35 0 45 c0 24
7 109 15 189 26 258 36 381 30 390 -28 46 -90 -113 -114 -295 -26 -195 -32
-267 -30 -350 l2 -88 -41 -39 c-47 -43 -52 -45 -82 -20 -33 27 -37 119 -11
262 12 63 30 163 40 221 28 156 73 297 159 504 31 75 96 190 112 200 6 4 32
39 59 79 27 40 73 92 101 116 29 24 79 75 111 112 46 54 76 77 141 112 46 23
145 77 221 119 76 43 141 77 143 77 10 0 132 86 219 154 92 73 399 374 536
526 42 47 102 124 134 173 78 121 250 464 276 551 11 39 43 137 70 219 60 176
78 294 52 334 -14 20 -14 29 -4 45 31 50 2 237 -55 351 -38 75 -251 297 -284
297 -35 0 -18 23 38 52 50 25 55 26 100 13 26 -7 72 -20 104 -29 45 -13 55
-20 52 -34 -3 -9 13 -45 36 -80 57 -89 89 -155 159 -331 53 -132 61 -160 56
-196 -4 -25 0 -65 10 -105 11 -43 15 -81 11 -112 -5 -38 -4 -48 7 -48 23 0 34
21 40 78 9 74 17 82 36 32 20 -54 44 -71 67 -48 16 16 16 20 1 69 -9 28 -17
65 -17 83 0 50 -57 251 -97 344 -20 47 -55 120 -78 161 -24 42 -42 77 -40 79
1 1 32 -12 68 -29 37 -17 87 -34 113 -37 l47 -7 46 -114 c34 -85 47 -108 49
-88 5 42 -27 369 -38 382 -5 6 -52 34 -104 61 l-94 49 -62 -33 c-76 -39 -110
-40 -192 -5 -62 27 -171 94 -183 113 -3 6 -17 7 -30 4 -13 -3 -48 1 -77 9 -29
8 -66 15 -83 16 -16 0 -84 1 -150 3 l-121 3 -84 -39 -84 -40 -35 41 c-20 22
-43 42 -52 45 -8 3 -52 31 -97 62 -77 52 -122 69 -122 47 0 -6 35 -33 78 -62
94 -63 89 -58 73 -69 -20 -12 -41 -1 -52 27 -6 16 -15 23 -28 21 -24 -4 -111
50 -111 68 0 8 -11 17 -26 20 -21 5 -39 34 -105 166 -44 87 -77 163 -74 168 3
5 1 17 -4 27 -6 10 -29 63 -51 117 -34 81 -40 104 -31 122 10 23 62 44 109 44
26 0 73 22 90 43 7 7 19 51 28 97 17 93 77 269 124 363 57 115 112 150 118 75
2 -25 -16 -94 -57 -216 -63 -183 -74 -242 -46 -242 9 0 27 -11 41 -25 28 -28
29 -26 39 50 3 28 19 115 35 195 16 80 30 175 32 211 3 50 9 73 27 95 15 19
21 38 19 56 -3 19 1 28 13 31 23 6 29 -1 29 -34 0 -40 39 -75 55 -49 10 17 21
11 33 -15 15 -34 15 -45 -1 -45 -17 0 -60 -46 -80 -85 -47 -95 -72 -296 -51
-424 15 -94 30 -124 80 -153 19 -11 34 -24 34 -29 0 -5 7 -9 15 -9 24 0 18 32
-21 105 l-37 69 12 100 c38 308 61 391 110 384 12 -2 16 5 16 30 0 44 12 40
35 -10 22 -49 24 -71 10 -99 -8 -14 -15 -17 -28 -10 -27 13 -40 3 -68 -52 -27
-53 -33 -104 -38 -332 -1 -68 0 -70 24 -70 21 0 36 -17 87 -95 33 -52 74 -110
89 -128 25 -31 154 -125 189 -138 25 -10 18 32 -9 53 -13 10 -54 74 -91 142
-37 69 -85 153 -106 187 -21 35 -34 64 -29 66 5 2 4 21 -2 44 -24 88 15 100
54 16 15 -31 37 -68 49 -81 13 -13 44 -57 70 -96 53 -82 220 -278 256 -302 44
-29 42 6 -3 72 -30 44 -27 53 9 25 26 -20 47 -26 47 -12 0 4 -24 23 -52 42
-80 54 -210 185 -206 207 6 29 29 20 130 -52 69 -49 112 -73 159 -85 35 -10
111 -34 168 -54 57 -20 113 -36 124 -36 11 0 40 12 64 26 24 14 53 24 65 22
19 -3 16 -7 -21 -31 -28 -19 -48 -43 -61 -72 -13 -29 -33 -53 -61 -72 l-43
-28 38 -3 c22 -2 47 3 61 12 35 23 36 21 18 -30 -20 -58 -7 -76 33 -48 15 10
39 26 54 34 49 26 175 140 216 193 49 65 195 207 212 207 14 0 108 63 154 102
15 13 50 67 78 121 29 53 56 97 61 97 16 0 10 47 -9 70 -20 25 -19 39 12 150
23 79 20 102 -14 125 -17 11 -83 56 -147 100 -65 44 -119 80 -121 81 -1 1 2
24 8 51 11 48 10 53 -24 114 -19 36 -56 114 -81 174 -55 130 -148 311 -178
343 -25 27 -47 28 -54 2 -6 -24 -7 -24 -38 -4 -37 24 -32 3 25 -95 96 -168
190 -404 190 -475 0 -17 -11 -50 -24 -72 -21 -37 -22 -48 -15 -100 5 -33 11
-69 14 -81 9 -41 56 -82 141 -125 48 -24 97 -53 109 -64 21 -19 22 -26 14 -62
-16 -71 -51 -132 -79 -138 -55 -12 -128 -37 -196 -69 -39 -18 -106 -40 -149
-50 l-77 -17 -66 34 c-78 39 -73 24 -97 263 -20 204 -23 217 -43 213 -36 -7
-44 -46 -38 -203 3 -82 9 -160 12 -173 l6 -22 -43 20 c-24 11 -62 20 -84 20
-39 0 -135 49 -135 69 0 18 25 77 42 102 28 37 4 78 -36 63 -17 -7 -25 -23
-40 -87 -6 -27 -15 -48 -21 -48 -25 0 -214 120 -269 171 -77 70 -108 90 -143
90 -21 0 -55 23 -133 90 -104 89 -140 107 -140 72 0 -12 -11 -21 -32 -27 -36
-11 -49 -45 -28 -71 9 -9 9 -14 1 -14 -43 0 -100 265 -75 355 3 11 22 29 42
41 20 11 60 35 89 54 66 41 124 53 169 34 18 -8 45 -14 58 -14 15 0 54 -22 93
-52 80 -60 120 -79 147 -69 11 5 31 2 45 -6 14 -7 35 -13 47 -13 12 0 32 -16
50 -40 32 -44 61 -51 73 -18 7 21 12 18 67 -41 49 -53 103 -91 129 -91 3 0 5
12 5 26 0 30 23 28 29 -2 8 -47 85 -93 121 -74 37 20 21 52 -43 88 -21 12 -45
22 -53 22 -8 0 -14 7 -14 15 0 8 -4 15 -9 15 -5 0 -22 18 -38 39 -22 31 -32
37 -45 30 -11 -6 -19 -6 -23 1 -3 5 -16 10 -28 10 -38 1 -94 26 -138 62 -24
20 -64 46 -89 58 -25 13 -96 56 -159 97 -108 70 -115 73 -146 63 -26 -9 -41
-8 -70 4 -50 21 -64 60 -67 192 -2 93 1 118 20 167 26 68 29 127 7 127 -8 0
-15 1 -15 3 0 2 22 116 49 253 49 247 76 339 190 662 66 187 67 234 4 171 -72
-70 -153 -277 -233 -595 -37 -146 -46 -172 -70 -191 -33 -27 -94 -117 -189
-280 -39 -68 -74 -123 -78 -123 -3 0 -3 24 -1 54 4 49 10 60 59 114 61 68 169
242 199 320 11 29 20 73 20 98 l0 46 -29 -24 c-33 -27 -77 -93 -156 -235 -32
-57 -60 -103 -62 -103 -3 0 -1 19 2 43 4 23 7 70 7 104 l-1 62 29 -5 c27 -6
32 -1 76 67 64 99 151 269 159 311 10 51 -7 132 -28 136 -10 2 -19 -4 -23 -15
-3 -10 -12 -29 -20 -43 -9 -14 -49 -92 -90 -175 -80 -162 -83 -157 -28 45 56
205 123 401 160 470 85 155 191 302 356 495 139 164 431 369 554 390 21 4 85
24 141 46 135 52 238 75 418 94 127 13 301 33 327 39 5 0 86 0 180 0 141 -1
199 -6 313 -28z m1763 -1622 c7 -41 5 -55 -8 -71 -9 -12 -29 -69 -45 -127 -15
-59 -31 -103 -35 -99 -4 4 -16 44 -28 89 l-21 81 24 48 c14 26 37 86 52 132
l28 85 13 -43 c7 -24 16 -67 20 -95z m49 -265 c9 -69 8 -73 -36 -195 -24 -68
-46 -122 -48 -120 -2 1 -10 41 -18 87 l-15 84 34 65 c19 36 40 84 47 108 7 23
15 42 19 42 4 0 11 -32 17 -71z m-4117 -217 c0 -10 -25 -56 -55 -102 -31 -46
-88 -139 -127 -207 -39 -68 -72 -123 -74 -123 -2 0 4 16 12 35 7 19 14 45 14
57 0 13 24 53 54 89 29 37 79 112 112 168 32 55 60 101 61 101 2 0 3 -8 3 -18z
m4158 -211 c-4 -77 -10 -109 -31 -155 -15 -32 -27 -77 -28 -100 l0 -41 -21 45
c-19 42 -21 43 -29 23 -16 -42 -22 -23 -16 51 4 58 11 83 31 113 14 20 38 73
52 117 34 102 48 84 42 -53z m-4327 -278 c-15 -29 -40 -59 -41 -50 0 10 39 67
46 67 3 0 0 -8 -5 -17z m4427 -609 c28 -19 29 -63 2 -97 -11 -14 -20 -28 -20
-31 0 -3 24 -36 53 -74 28 -37 72 -98 96 -135 39 -60 43 -71 33 -92 -14 -29
-46 -33 -81 -9 -28 20 -126 168 -160 242 l-25 53 18 67 c25 95 39 108 84 76z
m-4744 -56 c13 -49 6 -80 -23 -109 -35 -34 -51 -36 -76 -9 -22 25 -15 54 25
103 36 42 65 48 74 15z m100 -132 c-2 -56 -164 -382 -198 -398 -32 -14 -56 3
-56 41 0 36 57 153 142 289 58 92 75 112 92 110 17 -2 21 -9 20 -42z m4980
-296 c38 -14 51 -46 31 -76 -20 -31 -59 -31 -90 1 -30 29 -31 39 -5 65 23 23
29 24 64 10z m-5378 -227 c-2 -3 -11 8 -20 25 -8 16 -12 33 -8 37 4 3 13 -8
20 -25 7 -18 11 -34 8 -37z m-38 -30 c-5 -25 -28 -28 -28 -4 0 12 6 21 16 21
9 0 14 -7 12 -17z m5671 -36 c13 -34 14 -77 4 -77 -4 0 -27 7 -50 16 -45 17
-47 22 -37 71 5 26 9 28 39 25 27 -3 36 -10 44 -35z m-5569 -64 c12 -27 30
-69 41 -95 l18 -47 -47 -21 c-26 -12 -69 -35 -95 -52 -40 -26 -50 -29 -58 -17
-10 17 8 36 81 87 64 45 82 68 60 82 -19 12 -45 5 -92 -26 -21 -13 -40 -24
-43 -24 -3 0 -5 15 -5 33 0 25 9 42 40 72 l39 38 21 -26 c30 -38 42 -34 24 8
-22 53 -8 42 16 -12z m5578 -79 c6 -2 12 -19 12 -38 0 -34 -1 -34 -29 -23 -32
12 -61 4 -61 -17 0 -8 18 -29 40 -46 35 -28 40 -37 40 -74 0 -24 -3 -45 -6
-48 -3 -3 -37 8 -75 26 -59 26 -69 34 -64 51 3 11 13 61 22 111 l16 90 46 -14
c25 -9 52 -17 59 -18z m-5483 -143 l15 -30 -58 -32 c-31 -18 -76 -46 -100 -62
-24 -16 -45 -27 -47 -25 -2 1 -6 15 -10 29 -6 24 0 30 62 68 37 22 79 50 93
61 14 11 26 20 27 20 1 0 9 -13 18 -29z m63 -130 c9 -27 8 -29 -16 -34 -15 -3
-73 -35 -129 -72 -91 -60 -123 -71 -123 -46 0 5 8 8 17 7 14 -1 17 6 14 37 -2
30 1 37 16 37 10 0 59 22 108 49 50 27 93 50 97 50 3 1 11 -12 16 -28z m5389
-43 c9 -7 8 -20 -4 -54 -8 -24 -19 -46 -24 -49 -9 -6 -129 53 -129 64 1 3 7
17 15 31 8 14 14 38 15 53 l0 28 58 -32 c31 -18 62 -36 69 -41z m-5303 -125
c31 -58 55 -107 53 -108 -1 0 -14 -9 -29 -18 -34 -21 -33 -22 -52 8 -16 24
-16 27 4 54 30 43 26 54 -17 49 -30 -4 -45 1 -70 21 l-33 26 43 37 c23 20 43
37 44 38 1 0 27 -48 57 -107z m5149 6 c23 -12 52 -28 64 -36 l22 -15 -32 -49
c-34 -52 -47 -58 -68 -32 -8 9 -31 28 -51 43 l-37 27 25 41 c14 23 27 42 30
42 3 0 24 -10 47 -21z m-5353 -38 c0 -11 3 -26 6 -35 4 -10 -3 -19 -20 -27
-22 -10 -29 -9 -46 6 -27 25 -25 32 13 55 40 25 47 25 47 1z m5248 -108 c25
-21 53 -43 61 -50 14 -10 12 -15 -13 -42 -17 -17 -33 -31 -37 -31 -4 0 -32 20
-63 46 l-56 45 28 35 c15 18 29 34 31 34 2 0 24 -17 49 -37z m-5179 -43 l16
-24 -27 19 c-15 11 -28 24 -28 28 0 15 23 1 39 -23z m288 1 l24 -20 -33 -17
c-18 -9 -56 -34 -85 -55 -29 -22 -56 -39 -61 -39 -11 0 -57 49 -51 54 9 9 164
95 172 95 5 1 20 -8 34 -18z m4801 -89 l53 -48 -35 -39 -34 -40 -56 55 -56 54
32 33 c18 18 34 33 37 33 4 -1 30 -22 59 -48z m-4704 9 c3 -4 -17 -27 -44 -50
-31 -26 -53 -54 -58 -74 -5 -18 -16 -33 -26 -35 -19 -4 -66 34 -66 52 0 10
163 112 182 115 4 1 9 -3 12 -8z m190 -30 c7 -11 -14 -20 -31 -13 -7 2 -10 8
-7 13 7 12 31 12 38 0z m4353 -67 c-9 -9 -28 6 -21 18 4 6 10 6 17 -1 6 -6 8
-13 4 -17z m-4720 -496 c18 -18 33 -42 33 -55 0 -13 10 -29 24 -38 13 -9 31
-35 39 -58 19 -51 32 -127 21 -127 -4 0 -21 11 -38 24 -60 45 -96 58 -141 52
-23 -4 -51 -13 -61 -21 -18 -15 -18 -16 5 -35 13 -11 34 -20 46 -20 16 0 38
-17 68 -52 54 -64 127 -183 127 -208 0 -24 -32 -120 -40 -120 -3 0 -25 27 -48
60 -76 107 -209 200 -270 188 -35 -7 -21 -36 48 -104 100 -96 113 -124 118
-259 l4 -110 -47 -63 c-26 -35 -49 -62 -51 -59 -3 2 -11 48 -19 101 -17 114
-39 159 -109 232 -38 40 -59 54 -80 54 -33 0 -31 -9 19 -115 39 -83 48 -145
36 -240 -12 -94 -39 -147 -114 -226 l-64 -66 9 46 c12 63 1 139 -34 249 -29
88 -34 96 -93 147 -96 85 -137 69 -75 -29 45 -71 66 -181 51 -269 -18 -106
-57 -169 -136 -218 -25 -16 -95 -27 -95 -16 0 2 10 23 22 48 19 38 22 60 22
159 0 87 -4 125 -17 155 -28 64 -66 112 -98 126 -49 20 -54 2 -24 -92 48 -152
15 -256 -123 -395 -35 -35 -53 -44 -95 -51 -29 -5 -53 -6 -55 -3 -1 4 14 41
34 84 35 76 36 82 32 176 -3 86 -6 101 -31 138 -20 30 -34 42 -52 42 -24 0
-24 0 -24 -111 0 -102 -2 -115 -27 -158 -35 -61 -71 -99 -116 -122 l-37 -19
-72 30 c-102 41 -109 50 -74 92 33 39 85 150 85 182 0 30 -20 49 -37 35 -7 -7
-13 -16 -13 -21 0 -5 -30 -38 -67 -73 -86 -84 -98 -84 -185 -1 l-68 65 17 29
c23 40 6 62 -48 62 -51 0 -71 28 -153 210 -35 80 -85 191 -111 247 -75 167
-52 232 51 140 60 -53 148 -118 190 -140 76 -39 273 -98 397 -118 116 -19 155
-21 317 -15 102 3 213 11 245 16 81 13 208 78 402 207 87 57 174 113 193 123
55 29 177 147 221 214 40 60 104 126 124 126 5 0 24 -14 42 -32z m5093 -20
c22 -17 58 -60 81 -95 44 -67 173 -194 224 -220 17 -8 100 -62 186 -119 161
-107 305 -185 374 -203 22 -5 126 -15 230 -22 165 -10 204 -10 290 4 55 9 122
19 149 22 50 7 256 74 310 102 52 26 159 104 207 150 58 56 83 55 87 -3 3 -43
-3 -58 -146 -373 -94 -206 -108 -227 -151 -223 -21 2 -40 -3 -52 -14 -23 -21
-24 -32 -2 -56 15 -17 15 -20 -8 -46 -13 -15 -30 -31 -38 -36 -7 -5 -31 -24
-51 -42 -21 -19 -45 -34 -54 -34 -17 0 -159 135 -167 159 -9 25 -39 4 -39 -26
0 -33 49 -139 87 -190 l27 -35 -29 -24 c-17 -13 -54 -33 -83 -44 l-54 -20 -48
26 c-47 25 -89 74 -124 142 -13 26 -17 55 -15 131 1 53 -1 103 -5 109 -12 20
-33 14 -60 -18 -37 -45 -49 -95 -44 -191 3 -71 9 -95 40 -159 20 -41 35 -76
34 -77 -2 -2 -26 1 -56 7 -51 10 -112 50 -134 89 -5 9 -23 34 -41 56 -41 53
-55 87 -66 162 -8 54 -6 73 17 143 26 83 25 100 -5 100 -32 0 -69 -39 -103
-108 -31 -63 -33 -72 -33 -177 1 -93 4 -118 24 -163 13 -29 22 -54 20 -57 -12
-12 -83 17 -124 51 -56 45 -90 108 -106 195 -15 83 6 195 51 267 33 55 38 80
15 88 -16 6 -58 -22 -118 -78 -67 -63 -122 -307 -93 -408 l8 -25 -19 25 c-10
14 -42 48 -70 76 -71 72 -95 138 -95 269 -1 96 1 103 35 171 20 39 38 82 39
95 5 40 -40 25 -98 -32 -65 -64 -90 -115 -104 -209 -22 -143 -18 -140 -76 -65
l-39 50 0 110 c0 65 5 125 13 147 8 22 45 69 93 116 95 96 101 117 30 110 -80
-8 -210 -118 -281 -238 -12 -20 -17 -12 -37 61 l-17 65 39 65 c38 63 93 137
128 171 9 10 30 18 45 18 55 0 70 42 21 59 -58 20 -103 14 -155 -22 -81 -55
-76 -55 -68 -1 9 62 35 123 63 148 11 11 21 26 21 35 0 13 67 91 78 91 2 0 21
-14 42 -32z m-4400 -148 c11 -6 31 -27 45 -48 l25 -37 -22 -5 c-35 -9 -32 -27
10 -69 22 -21 46 -56 52 -77 14 -43 26 -314 15 -314 -4 0 -27 23 -52 50 -61
68 -153 115 -153 78 0 -7 11 -31 24 -53 66 -109 77 -131 97 -195 l23 -69 -32
-69 c-18 -38 -32 -74 -32 -80 0 -27 -17 -9 -33 36 -23 64 -100 152 -133 152
-37 0 -39 -24 -10 -94 52 -122 67 -245 46 -390 -12 -82 -38 -176 -49 -176 -5
0 -11 27 -14 59 -19 177 -93 331 -159 331 -23 0 -24 -60 -2 -121 21 -58 29
-206 16 -297 -15 -101 -67 -244 -108 -289 l-33 -38 -1 95 c0 52 -7 125 -15
163 -23 111 -118 267 -146 240 -10 -10 -9 -27 1 -85 34 -182 26 -402 -18 -501
-13 -29 -36 -57 -64 -77 -49 -36 -98 -63 -104 -58 -2 2 8 44 22 93 23 85 24
96 14 195 -12 120 -40 193 -77 198 -14 2 -23 -2 -23 -10 -3 -238 -6 -260 -49
-377 -52 -144 -64 -164 -127 -211 -39 -29 -69 -42 -125 -54 -40 -8 -75 -14
-77 -12 -1 2 6 23 17 47 11 24 39 95 62 157 37 102 41 120 36 178 -5 65 -29
118 -50 111 -7 -2 -16 -32 -20 -66 -14 -111 -187 -427 -245 -445 -20 -7 -269
18 -278 27 -3 3 8 23 25 44 16 21 53 76 81 122 55 92 66 155 34 182 -14 12
-19 10 -33 -9 -9 -13 -34 -47 -56 -75 -23 -29 -60 -80 -83 -113 -23 -36 -61
-75 -88 -93 -51 -34 -69 -34 -164 -6 -25 8 -60 17 -77 20 -38 8 -41 15 -14 32
34 22 83 101 79 131 -5 46 -35 40 -97 -22 -31 -30 -76 -64 -102 -75 -42 -19
-48 -19 -95 -5 -27 8 -74 18 -104 22 -53 7 -55 8 -58 39 -5 46 -30 49 -99 14
-56 -28 -62 -29 -133 -21 -41 5 -78 9 -82 10 -5 0 -8 8 -8 18 0 52 -76 58
-141 10 -42 -30 -48 -31 -174 -38 -71 -4 -143 -12 -158 -18 -38 -16 -43 1 -23
71 21 73 62 126 140 182 36 26 66 50 66 55 0 10 101 54 168 74 138 40 286 56
572 62 321 6 428 21 770 104 305 75 461 123 532 163 23 14 72 37 107 52 83 34
155 83 299 205 274 229 387 384 529 725 28 66 54 138 58 160 8 47 31 95 46 95
6 0 19 -5 29 -10z m3689 -65 c12 -31 21 -64 21 -73 0 -16 56 -156 123 -307 46
-105 192 -307 288 -402 96 -94 254 -228 333 -282 68 -47 305 -156 423 -194
140 -46 580 -153 708 -172 57 -9 229 -20 400 -25 375 -11 567 -40 687 -101 49
-25 174 -125 216 -173 30 -34 62 -117 62 -159 0 -16 -5 -18 -27 -12 -16 4 -89
12 -164 18 -122 11 -140 15 -175 39 -54 38 -99 46 -124 23 -11 -10 -20 -28
-20 -40 0 -20 -6 -23 -75 -29 -70 -6 -78 -5 -135 24 -81 41 -105 38 -104 -12
1 -36 0 -38 -30 -39 -17 0 -62 -8 -101 -18 -68 -18 -71 -18 -120 0 -29 11 -68
36 -90 60 -55 57 -90 80 -109 73 -40 -15 -1 -104 73 -167 l32 -26 -28 -7 c-15
-3 -50 -12 -78 -19 -119 -32 -130 -31 -190 14 -30 23 -73 69 -96 104 -23 34
-57 78 -75 97 -18 19 -37 47 -43 63 -14 36 -48 37 -57 1 -15 -59 21 -139 128
-282 26 -35 35 -54 26 -57 -17 -5 -210 -25 -248 -25 -48 0 -102 67 -190 242
-65 127 -81 169 -87 218 -5 47 -9 60 -23 60 -23 0 -41 -44 -47 -115 -5 -52 0
-72 30 -150 19 -49 38 -101 42 -115 4 -14 18 -46 31 -72 28 -55 28 -55 -67
-35 -41 9 -73 25 -118 59 -68 53 -78 69 -133 217 -37 100 -39 113 -43 238 -3
135 -7 153 -29 153 -38 0 -75 -121 -78 -255 -1 -70 3 -106 21 -163 13 -40 21
-76 17 -79 -3 -3 -35 14 -71 37 -79 51 -109 102 -126 209 -13 85 -7 298 11
398 8 40 11 76 8 79 -26 26 -113 -96 -144 -203 -10 -32 -20 -112 -23 -178 l-6
-120 -32 43 c-41 55 -91 194 -104 291 -13 90 -5 227 17 293 17 54 15 119 -4
126 -7 2 -33 -16 -56 -40 -36 -38 -46 -59 -69 -142 -15 -54 -30 -124 -34 -157
-7 -73 -18 -66 -43 30 -43 162 -34 342 22 469 15 35 28 72 28 82 0 21 -29 34
-54 24 -23 -9 -102 -117 -116 -159 -6 -19 -15 -35 -18 -35 -4 0 -22 36 -40 80
l-34 80 27 77 c15 43 40 98 56 123 71 110 72 147 3 112 -38 -19 -134 -108
-134 -124 0 -4 -4 -8 -10 -8 -16 0 -12 212 5 289 13 55 23 75 55 106 44 43 51
65 20 65 -12 0 -20 7 -20 16 0 21 73 94 93 94 10 0 23 -21 36 -55z m-3647
-1042 c-7 -65 -12 -67 -12 -5 0 29 4 52 9 52 5 0 6 -21 3 -47z m3547 -35 c-1
-55 -5 -50 -11 15 -2 20 0 37 4 37 4 0 7 -24 7 -52z m-1646 -904 c39 -42 75
-87 79 -101 3 -13 18 -33 32 -44 54 -42 268 -379 242 -379 -3 0 -25 30 -51 66
-26 36 -61 74 -79 85 -29 18 -96 26 -109 13 -3 -3 12 -28 33 -55 61 -78 137
-218 180 -334 22 -59 40 -110 40 -113 0 -3 -16 13 -36 36 -24 28 -44 42 -60
42 -31 0 -31 -15 2 -110 30 -90 43 -184 46 -347 3 -131 -8 -171 -32 -113 -15
36 -56 71 -75 64 -24 -10 -25 -32 -5 -126 20 -94 25 -192 13 -261 -5 -31 -9
-38 -25 -34 -27 7 -34 -16 -42 -128 -6 -101 -36 -279 -57 -344 -34 -102 -171
-352 -185 -338 -3 3 -1 40 5 82 21 151 12 405 -26 723 -21 176 -2 329 56 457
39 86 44 111 25 129 -21 21 -40 10 -98 -56 -26 -30 -43 -43 -41 -32 23 99 41
164 71 248 32 88 34 100 21 113 -14 14 -19 14 -49 -3 -18 -11 -49 -43 -68 -72
-19 -29 -36 -49 -38 -44 -1 4 9 48 23 98 24 80 68 174 100 214 33 39 54 93 44
112 -32 60 -160 -46 -233 -196 -25 -50 -46 -88 -46 -83 0 18 64 235 78 262 8
17 36 62 62 100 26 39 55 85 64 103 65 126 -124 37 -214 -101 -45 -70 -49 -63
-20 41 30 108 79 197 174 316 33 41 29 66 -11 66 -74 0 -189 -103 -259 -232
-36 -68 -40 -66 -23 14 25 117 110 233 209 283 46 23 146 51 193 54 9 1 50
-33 90 -75z"/>
<path d="M5816 10871 c-32 -60 -10 -83 34 -36 19 20 22 30 14 42 -17 28 -32
26 -48 -6z"/>
<path d="M5801 10701 c-14 -25 -3 -53 18 -49 10 2 16 13 16 32 0 35 -20 45
-34 17z"/>
<path d="M7687 10524 c-4 -4 -7 -22 -7 -41 0 -39 23 -54 48 -30 12 13 14 23 6
44 -9 27 -33 41 -47 27z"/>
<path d="M5780 10480 c-49 -53 -67 -87 -53 -101 16 -16 48 5 83 53 30 41 40
88 18 88 -6 0 -28 -18 -48 -40z"/>
<path d="M7796 10402 c-4 -7 -2 -12 4 -12 8 0 9 -7 5 -17 -12 -29 -34 -155
-34 -201 -1 -46 18 -64 43 -42 17 13 46 132 46 184 0 40 -51 109 -64 88z"/>
<path d="M5760 10250 c-46 -43 -81 -82 -77 -86 30 -30 192 90 185 137 -2 12
-7 24 -13 25 -5 2 -48 -33 -95 -76z"/>
<path d="M5603 10025 c-53 -23 -124 -75 -133 -98 -5 -12 -12 -40 -16 -62 l-8
-40 -5 40 -6 40 -37 -50 c-21 -27 -38 -58 -38 -68 0 -10 -9 -35 -20 -57 -29
-56 -27 -98 5 -106 34 -8 55 1 55 25 0 26 17 63 74 160 57 95 86 121 190 174
42 21 76 43 76 48 0 14 -101 10 -137 -6z m-166 -227 c-3 -8 -6 -5 -6 6 -1 11
2 17 5 13 3 -3 4 -12 1 -19z"/>
<path d="M6123 10016 c2 -6 28 -21 58 -33 102 -41 264 -199 324 -317 18 -33
38 -61 46 -61 23 0 40 46 34 94 -8 65 -45 120 -126 189 -95 81 -205 135 -282
137 -38 2 -57 -2 -54 -9z"/>
<path d="M5839 9732 c-47 -22 -90 -73 -124 -146 -56 -122 -75 -205 -87 -377
-12 -165 -7 -221 43 -415 33 -133 124 -286 190 -320 30 -15 71 -19 83 -7 4 4
24 6 44 5 20 -1 44 4 53 10 45 36 112 201 179 443 25 89 29 121 24 170 -10
109 -54 287 -89 362 -50 109 -139 239 -175 258 -35 18 -117 28 -141 17z"/>
<path d="M6904 8856 c-71 -60 -324 -444 -324 -490 0 -22 26 -31 53 -19 23 11
263 354 303 433 12 25 26 60 29 78 9 43 -9 42 -61 -2z"/>
<path d="M5066 8635 c-8 -21 28 -122 81 -229 24 -48 42 -95 38 -103 -7 -20 12
-43 35 -43 25 0 41 23 47 69 5 34 -2 53 -47 138 -29 53 -65 117 -82 140 -30
44 -61 56 -72 28z"/>
<path d="M4853 8604 c-8 -23 45 -125 107 -207 27 -34 50 -73 52 -87 2 -19 10
-26 32 -28 43 -5 51 9 32 65 -18 55 -173 266 -199 271 -9 2 -20 -4 -24 -14z"/>
<path d="M6050 7549 c0 -18 98 -215 305 -615 29 -55 64 -113 79 -128 14 -16
26 -35 26 -42 0 -8 8 -23 18 -33 9 -11 25 -31 36 -46 13 -19 21 -24 29 -16 7
7 2 28 -16 68 -14 32 -33 88 -41 125 -9 37 -38 120 -65 185 -27 65 -68 176
-91 246 -40 122 -44 130 -76 143 -22 9 -41 28 -54 53 -25 50 -43 63 -34 24 6
-26 5 -26 -30 15 -42 47 -86 58 -86 21z"/>
<path d="M5747 7498 c-13 -18 -43 -68 -67 -110 -24 -42 -51 -79 -61 -81 -11
-3 -23 -17 -29 -33 -6 -15 -26 -52 -45 -83 -19 -31 -47 -90 -64 -132 -16 -42
-51 -114 -77 -160 -26 -46 -53 -96 -61 -111 -8 -15 -19 -30 -24 -33 -17 -11
-41 -67 -35 -82 6 -14 8 -14 24 1 14 12 21 13 30 4 20 -20 65 35 125 152 30
58 59 104 65 103 12 -3 65 57 58 65 -3 3 -12 -1 -20 -7 -8 -7 31 63 86 156
130 219 178 306 178 326 0 18 -34 57 -49 57 -6 0 -21 -15 -34 -32z"/>
<path d="M5395 7304 c-9 -9 -30 -44 -47 -78 -23 -47 -63 -93 -174 -202 -99
-97 -142 -146 -138 -157 4 -10 -9 -25 -41 -47 -49 -34 -75 -78 -54 -91 7 -4
31 -10 54 -14 48 -7 134 22 173 57 12 12 22 18 22 13 0 -5 28 36 61 90 34 55
82 132 108 170 39 58 83 145 109 215 3 8 -11 0 -29 -17 -19 -18 -40 -33 -46
-33 -24 0 -24 22 1 51 36 42 37 78 1 43z m-131 -339 c-4 -8 -10 -12 -15 -9
-11 6 -2 24 11 24 5 0 7 -7 4 -15z"/>
<path d="M7552 7250 c-103 -47 -146 -111 -79 -118 15 -2 25 -7 22 -12 -3 -5
-1 -19 5 -30 13 -24 49 -26 96 -4 51 24 134 106 134 132 0 23 -20 22 -50 -4
-23 -19 -44 -2 -36 30 6 23 4 26 -21 26 -16 0 -47 -9 -71 -20z"/>
<path d="M6523 7140 c3 -14 9 -45 13 -70 7 -47 32 -100 47 -100 5 0 4 -7 -3
-15 -7 -8 -17 -12 -23 -8 -14 9 -2 -48 22 -102 22 -50 43 -66 143 -106 71 -29
130 -33 167 -10 21 13 -5 57 -54 91 -32 22 -44 37 -40 48 3 13 -36 58 -136
157 -102 101 -140 133 -136 115z"/>
<path d="M6357 6723 c-14 -14 -6 -57 24 -126 17 -40 40 -81 50 -93 11 -11 19
-28 19 -37 0 -9 4 -17 9 -17 12 0 31 55 31 89 0 29 -52 146 -77 174 -16 17
-44 23 -56 10z"/>
<path d="M5426 6647 c-54 -82 -120 -306 -114 -385 3 -29 1 -55 -4 -58 -11 -7
-10 -24 2 -24 6 0 14 8 17 18 4 9 14 27 24 40 10 13 25 49 34 80 9 31 34 117
56 190 23 73 38 140 35 148 -8 21 -34 17 -50 -9z"/>
<path d="M5483 5953 c-93 -97 -120 -146 -121 -216 0 -27 -7 -59 -17 -73 -19
-30 -12 -44 13 -26 9 6 31 18 48 26 40 18 64 44 125 134 29 44 49 85 49 101 0
15 7 36 15 47 26 34 14 94 -19 94 -6 0 -48 -39 -93 -87z"/>
<path d="M5482 5654 c-12 -8 -45 -49 -72 -89 -72 -106 -68 -182 7 -130 24 17
107 146 118 183 4 13 2 29 -5 37 -16 19 -20 19 -48 -1z"/>
<path d="M5370 5334 c-52 -80 -60 -116 -27 -122 41 -8 122 109 115 166 -6 52
-34 37 -88 -44z"/>
</g>
</svg>
